<svg xmlns="http://www.w3.org/2000/svg" xmlns:xlink="http://www.w3.org/1999/xlink" width="6000" zoomAndPan="magnify" viewBox="0 0 4500 809.999993" height="1080" preserveAspectRatio="xMidYMid meet" version="1.0"><defs><g/></defs><g fill="#f2faff" fill-opacity="1"><g transform="translate(397.938808, 139.989977)"><g><path d="M 28.804688 -9.421875 C 22.226562 -9.421875 16.535156 -12.710938 16.179688 -19.914062 L 2.667969 -19.914062 C 2.757812 -5.15625 14.933594 1.421875 28.269531 1.421875 C 40.628906 1.421875 53.339844 -3.824219 53.339844 -18.046875 C 53.339844 -41.070312 18.402344 -33.335938 18.402344 -44.09375 C 18.402344 -48.628906 23.648438 -50.40625 27.382812 -50.40625 C 34.046875 -50.40625 37.691406 -48.359375 38.40625 -42.050781 L 51.292969 -42.050781 C 50.851562 -55.828125 39.648438 -61.339844 27.203125 -61.339844 C 16.179688 -61.339844 4.621094 -55.472656 4.621094 -43.027344 C 4.621094 -20.714844 39.558594 -28.269531 39.558594 -16.535156 C 39.558594 -11.113281 32.980469 -9.421875 28.804688 -9.421875 Z M 28.804688 -9.421875 "/></g></g></g><g fill="#f2faff" fill-opacity="1"><g transform="translate(468.170107, 139.989977)"><g><path d="M 52.007812 -30.316406 C 52.007812 -20.980469 43.5625 -12.445312 34.226562 -12.445312 C 24.890625 -12.445312 16.445312 -20.980469 16.445312 -30.316406 C 16.445312 -39.648438 24.890625 -48.09375 34.226562 -48.09375 C 43.5625 -48.09375 52.007812 -39.648438 52.007812 -30.316406 Z M 65.339844 -30.226562 C 65.339844 -46.9375 50.9375 -61.339844 34.226562 -61.339844 C 17.511719 -61.339844 3.113281 -46.9375 3.113281 -30.226562 C 3.113281 -13.511719 17.511719 0.890625 34.226562 0.890625 C 50.9375 0.890625 65.339844 -13.511719 65.339844 -30.226562 Z M 65.339844 -30.226562 "/></g></g></g><g fill="#f2faff" fill-opacity="1"><g transform="translate(550.847326, 139.989977)"><g><path d="M 5.332031 0 L 40.359375 0 L 40.359375 -12.089844 L 18.667969 -12.089844 L 18.667969 -60.453125 L 5.332031 -60.453125 Z M 5.332031 0 "/></g></g></g><g fill="#f2faff" fill-opacity="1"><g transform="translate(608.543811, 139.989977)"><g><path d="M 40.628906 -60.453125 L 40.628906 -25.515625 C 40.628906 -17.15625 38.136719 -12.445312 28.980469 -12.445312 C 19.914062 -12.445312 17.335938 -17.15625 17.335938 -25.515625 L 17.335938 -60.453125 L 4 -60.453125 L 4 -23.558594 C 4 -7.46875 13.246094 0.890625 28.980469 0.890625 C 44.714844 0.890625 53.960938 -7.46875 53.960938 -23.558594 L 53.960938 -60.453125 Z M 40.628906 -60.453125 "/></g></g></g><g fill="#f2faff" fill-opacity="1"><g transform="translate(680.730887, 139.989977)"><g><path d="M 48.984375 -20.535156 C 46.496094 -15.203125 40.449219 -11.558594 34.226562 -11.558594 C 24.449219 -11.558594 16.625 -19.914062 16.625 -30.226562 C 16.625 -40.449219 24.449219 -48.894531 34.226562 -48.894531 C 40.359375 -48.894531 46.40625 -45.515625 48.894531 -40.09375 L 63.742188 -40.09375 C 59.652344 -52.449219 48.003906 -61.339844 34.226562 -61.339844 C 17.070312 -61.339844 3.113281 -47.382812 3.113281 -30.226562 C 3.113281 -14.3125 15.023438 -1.15625 30.402344 0.710938 L 25.425781 11.644531 L 26.757812 11.46875 C 28.625 11.203125 30.9375 10.578125 32.804688 10.933594 C 36.894531 11.734375 35.292969 17.601562 28.449219 16.535156 C 27.203125 16.359375 25.957031 16 24.714844 15.558594 L 24.179688 15.378906 L 21.691406 20.359375 L 22.492188 20.714844 C 28.804688 23.113281 37.78125 23.113281 40.359375 16.890625 C 42.226562 12.355469 40.449219 7.199219 36.714844 6.402344 C 35.648438 6.132812 34.671875 6.132812 33.335938 6.402344 L 35.914062 0.890625 C 48.894531 0.179688 59.828125 -8.535156 63.828125 -20.535156 Z M 48.984375 -20.535156 "/></g></g></g><g fill="#f2faff" fill-opacity="1"><g transform="translate(761.007816, 139.989977)"><g><path d="M 43.117188 -76.898438 C 43.117188 -73.253906 40.984375 -72.988281 39.472656 -72.988281 C 36.539062 -72.988281 33.425781 -77.429688 27.382812 -77.429688 C 20.359375 -77.429688 16.714844 -70.765625 16.714844 -64.71875 L 24.269531 -64.71875 C 24.269531 -66.140625 25.246094 -68.984375 28.003906 -68.984375 C 32.804688 -68.984375 34.316406 -64.097656 40.539062 -64.097656 C 47.292969 -64.097656 51.207031 -69.339844 51.207031 -76.898438 Z M 52.007812 -30.316406 C 52.007812 -20.980469 43.5625 -12.445312 34.226562 -12.445312 C 24.890625 -12.445312 16.445312 -20.980469 16.445312 -30.316406 C 16.445312 -39.648438 24.890625 -48.09375 34.226562 -48.09375 C 43.5625 -48.09375 52.007812 -39.648438 52.007812 -30.316406 Z M 65.339844 -30.226562 C 65.339844 -46.9375 50.9375 -61.339844 34.226562 -61.339844 C 17.511719 -61.339844 3.113281 -46.9375 3.113281 -30.226562 C 3.113281 -13.511719 17.511719 0.890625 34.226562 0.890625 C 50.9375 0.890625 65.339844 -13.511719 65.339844 -30.226562 Z M 65.339844 -30.226562 "/></g></g></g><g fill="#f2faff" fill-opacity="1"><g transform="translate(843.68505, 139.989977)"><g><path d="M 40.359375 -12.089844 L 18.667969 -12.089844 L 18.667969 -24.269531 L 39.472656 -24.269531 L 39.472656 -36.359375 L 18.667969 -36.359375 L 18.667969 -48.359375 L 40.359375 -48.359375 L 40.359375 -60.453125 L 5.332031 -60.453125 L 5.332031 0 L 40.359375 0 Z M 40.359375 -12.089844 "/></g></g></g><g fill="#f2faff" fill-opacity="1"><g transform="translate(903.604008, 139.989977)"><g><path d="M 28.804688 -9.421875 C 22.226562 -9.421875 16.535156 -12.710938 16.179688 -19.914062 L 2.667969 -19.914062 C 2.757812 -5.15625 14.933594 1.421875 28.269531 1.421875 C 40.628906 1.421875 53.339844 -3.824219 53.339844 -18.046875 C 53.339844 -41.070312 18.402344 -33.335938 18.402344 -44.09375 C 18.402344 -48.628906 23.648438 -50.40625 27.382812 -50.40625 C 34.046875 -50.40625 37.691406 -48.359375 38.40625 -42.050781 L 51.292969 -42.050781 C 50.851562 -55.828125 39.648438 -61.339844 27.203125 -61.339844 C 16.179688 -61.339844 4.621094 -55.472656 4.621094 -43.027344 C 4.621094 -20.714844 39.558594 -28.269531 39.558594 -16.535156 C 39.558594 -11.113281 32.980469 -9.421875 28.804688 -9.421875 Z M 28.804688 -9.421875 "/></g></g></g><g fill="#f2faff" fill-opacity="1"><g transform="translate(973.835335, 139.989977)"><g/></g></g><g fill="#f2faff" fill-opacity="1"><g transform="translate(1010.284896, 139.989977)"><g><path d="M 80.71875 0 L 68.984375 -60.453125 L 53.160156 -60.453125 L 40.628906 -18.046875 L 28.003906 -60.453125 L 12.179688 -60.453125 L 0.445312 0 L 15.113281 0 L 22.226562 -41.695312 L 34.046875 0 L 47.117188 0 L 58.941406 -41.695312 L 66.050781 0 Z M 80.71875 0 "/></g></g></g><g fill="#f2faff" fill-opacity="1"><g transform="translate(1105.674718, 139.989977)"><g><path d="M 40.359375 -12.089844 L 18.667969 -12.089844 L 18.667969 -24.269531 L 39.472656 -24.269531 L 39.472656 -36.359375 L 18.667969 -36.359375 L 18.667969 -48.359375 L 40.359375 -48.359375 L 40.359375 -60.453125 L 5.332031 -60.453125 L 5.332031 0 L 40.359375 0 Z M 40.359375 -12.089844 "/></g></g></g><g fill="#f2faff" fill-opacity="1"><g transform="translate(1165.593676, 139.989977)"><g><path d="M 18.492188 -12.269531 L 18.492188 -48.09375 L 22.492188 -48.09375 C 32.804688 -48.09375 39.738281 -40.269531 39.738281 -30.226562 C 39.738281 -20.179688 32.714844 -12.269531 22.492188 -12.269531 Z M 5.332031 -60.453125 L 5.332031 0 L 23.292969 0 C 40.449219 0 53.339844 -13.15625 53.339844 -30.226562 C 53.339844 -47.292969 40.359375 -60.453125 23.292969 -60.453125 Z M 5.332031 -60.453125 "/></g></g></g><g fill="#f2faff" fill-opacity="1"><g transform="translate(1236.269472, 139.989977)"><g><path d="M 18.667969 0 L 18.667969 -60.453125 L 5.332031 -60.453125 L 5.332031 0 Z M 18.667969 0 "/></g></g></g><g fill="#f2faff" fill-opacity="1"><g transform="translate(1274.496966, 139.989977)"><g><path d="M 48.984375 -20.535156 C 46.496094 -15.203125 40.449219 -11.558594 34.226562 -11.558594 C 24.449219 -11.558594 16.625 -19.914062 16.625 -30.226562 C 16.625 -40.449219 24.449219 -48.894531 34.226562 -48.894531 C 40.359375 -48.894531 46.40625 -45.515625 48.894531 -40.09375 L 63.742188 -40.09375 C 59.652344 -52.449219 48.003906 -61.339844 34.226562 -61.339844 C 17.070312 -61.339844 3.113281 -47.382812 3.113281 -30.226562 C 3.113281 -13.066406 17.070312 0.890625 34.226562 0.890625 C 48.003906 0.890625 59.742188 -8.089844 63.828125 -20.535156 Z M 48.984375 -20.535156 "/></g></g></g><g fill="#f2faff" fill-opacity="1"><g transform="translate(1354.773866, 139.989977)"><g><path d="M 38.226562 -23.113281 L 22.9375 -23.113281 L 30.582031 -44.628906 Z M 60.808594 0 L 36.269531 -60.453125 L 24.980469 -60.453125 L 0.445312 0 L 14.757812 0 L 19.113281 -12.179688 L 42.136719 -12.179688 L 46.496094 0 Z M 60.808594 0 "/></g></g></g><g fill="#f2faff" fill-opacity="1"><g transform="translate(1430.250214, 139.989977)"><g><path d="M 18.667969 -21.601562 L 18.757812 -21.601562 L 33.160156 0 L 50.050781 0 L 32.714844 -22.226562 C 40.359375 -24.089844 46.496094 -30.847656 46.496094 -41.070312 C 46.496094 -52.539062 37.78125 -60.453125 28.003906 -60.453125 L 5.332031 -60.453125 L 5.332031 0 L 18.667969 0 Z M 25.78125 -49.960938 C 29.691406 -49.960938 33.78125 -46.582031 33.78125 -41.070312 C 33.78125 -35.292969 29.691406 -32.09375 25.78125 -32.09375 L 18.667969 -32.09375 L 18.667969 -49.960938 Z M 25.78125 -49.960938 "/></g></g></g><g fill="#f2faff" fill-opacity="1"><g transform="translate(1493.458415, 139.989977)"><g><path d="M 40.359375 -12.089844 L 18.667969 -12.089844 L 18.667969 -24.269531 L 39.472656 -24.269531 L 39.472656 -36.359375 L 18.667969 -36.359375 L 18.667969 -48.359375 L 40.359375 -48.359375 L 40.359375 -60.453125 L 5.332031 -60.453125 L 5.332031 0 L 40.359375 0 Z M 40.359375 -12.089844 "/></g></g></g><g fill="#f2faff" fill-opacity="1"><g transform="translate(1553.377431, 139.989977)"><g/></g></g><g fill="#f2faff" fill-opacity="1"><g transform="translate(1589.826992, 139.989977)"><g><path d="M 5.332031 0 L 40.359375 0 L 40.359375 -12.089844 L 18.667969 -12.089844 L 18.667969 -60.453125 L 5.332031 -60.453125 Z M 5.332031 0 "/></g></g></g><g fill="#f2faff" fill-opacity="1"><g transform="translate(1647.523433, 139.989977)"><g><path d="M 31.027344 -48.359375 L 48.273438 -48.359375 L 48.273438 -60.453125 L 0.445312 -60.453125 L 0.445312 -48.359375 L 17.691406 -48.359375 L 17.691406 0 L 31.027344 0 Z M 31.027344 -48.359375 "/></g></g></g><g fill="#f2faff" fill-opacity="1"><g transform="translate(1710.464951, 139.989977)"><g><path d="M 18.492188 -12.269531 L 18.492188 -48.09375 L 22.492188 -48.09375 C 32.804688 -48.09375 39.738281 -40.269531 39.738281 -30.226562 C 39.738281 -20.179688 32.714844 -12.269531 22.492188 -12.269531 Z M 5.332031 -60.453125 L 5.332031 0 L 23.292969 0 C 40.449219 0 53.339844 -13.15625 53.339844 -30.226562 C 53.339844 -47.292969 40.359375 -60.453125 23.292969 -60.453125 Z M 5.332031 -60.453125 "/></g></g></g><g fill="#f2faff" fill-opacity="1"><g transform="translate(1781.140805, 139.989977)"><g><path d="M 38.226562 -23.113281 L 22.9375 -23.113281 L 30.582031 -44.628906 Z M 60.808594 0 L 36.269531 -60.453125 L 24.980469 -60.453125 L 0.445312 0 L 14.757812 0 L 19.113281 -12.179688 L 42.136719 -12.179688 L 46.496094 0 Z M 60.808594 0 "/></g></g></g><g fill="#f2faff" fill-opacity="1"><g transform="translate(1856.617153, 139.989977)"><g><path d="M 4.621094 -6.84375 C 4.621094 -2.578125 8.089844 0.890625 12.445312 0.890625 C 16.714844 0.890625 20.269531 -2.578125 20.269531 -6.84375 C 20.269531 -11.203125 16.714844 -14.667969 12.445312 -14.667969 C 8.089844 -14.667969 4.621094 -11.203125 4.621094 -6.84375 Z M 4.621094 -6.84375 "/></g></g></g><g fill="#f2faff" fill-opacity="1"><g transform="translate(397.938808, 730.161368)"><g><path d="M 64.539062 0 L 71.066406 0 L 56.539062 -66.652344 L 36.039062 -13.148438 L 15.535156 -66.652344 L 0.917969 0 L 7.539062 0 L 17.191406 -44.496094 L 36.039062 3.675781 L 54.792969 -44.496094 Z M 64.539062 0 "/></g></g></g><g fill="#f2faff" fill-opacity="1"><g transform="translate(471.757576, 730.161368)"><g><path d="M 46.425781 -21.144531 C 46.425781 -26.660156 44.222656 -31.441406 39.992188 -35.578125 C 35.855469 -39.53125 30.890625 -41.554688 25.28125 -41.554688 C 19.398438 -41.554688 14.433594 -39.441406 10.296875 -35.304688 C 6.160156 -31.164062 4.136719 -26.203125 4.136719 -20.410156 C 4.136719 -14.527344 6.160156 -9.5625 10.296875 -5.515625 C 12.226562 -3.585938 14.433594 -2.113281 17.007812 -1.011719 C 19.582031 0.09375 22.617188 0.644531 26.203125 0.644531 C 29.785156 0.644531 33.28125 -0.460938 36.773438 -2.667969 C 40.269531 -4.871094 42.839844 -8 44.589844 -11.859375 L 37.234375 -11.859375 C 35.761719 -9.929688 34.015625 -8.457031 31.902344 -7.355469 C 29.785156 -6.25 27.582031 -5.792969 25.28125 -5.792969 C 21.789062 -5.792969 18.664062 -6.894531 15.90625 -9.195312 C 13.148438 -11.398438 11.398438 -14.25 10.847656 -17.742188 L 46.425781 -17.742188 Z M 39.625 -23.257812 L 10.941406 -23.257812 C 11.308594 -24.914062 11.953125 -26.476562 12.871094 -27.949219 C 15.8125 -32.730469 19.949219 -35.121094 25.28125 -35.121094 C 28.683594 -35.121094 31.71875 -34.015625 34.382812 -31.808594 C 37.140625 -29.511719 38.796875 -26.660156 39.625 -23.257812 Z M 39.625 -23.257812 "/></g></g></g><g fill="#f2faff" fill-opacity="1"><g transform="translate(523.697366, 730.161368)"><g><path d="M 13.332031 0 L 13.332031 -68.953125 L 6.894531 -68.953125 L 6.894531 0 Z M 13.332031 0 "/></g></g></g><g fill="#f2faff" fill-opacity="1"><g transform="translate(545.760379, 730.161368)"><g><path d="M 13.332031 0 L 13.332031 -16.917969 C 13.332031 -22.523438 14.25 -26.753906 16.179688 -29.695312 C 17.285156 -31.351562 18.664062 -32.546875 20.410156 -33.464844 C 22.0625 -34.382812 24.363281 -34.84375 27.121094 -34.84375 C 29.878906 -34.84375 31.808594 -33.832031 33.003906 -31.992188 C 34.199219 -30.15625 34.84375 -27.855469 34.84375 -25.28125 L 34.84375 0 L 41.277344 0 L 41.277344 -25.28125 C 41.277344 -29.972656 39.992188 -33.738281 37.601562 -36.589844 C 36.3125 -38.0625 34.84375 -39.164062 33.097656 -39.992188 C 31.257812 -40.820312 28.960938 -41.277344 26.109375 -41.277344 C 23.167969 -41.277344 20.683594 -40.453125 18.480469 -38.980469 C 16.363281 -37.601562 14.617188 -35.761719 13.332031 -33.464844 L 13.332031 -68.953125 L 6.894531 -68.953125 L 6.894531 0 Z M 13.332031 0 "/></g></g></g><g fill="#f2faff" fill-opacity="1"><g transform="translate(594.390738, 730.161368)"><g><path d="M 39.992188 -20.410156 C 39.992188 -16.363281 38.519531 -12.960938 35.671875 -10.113281 C 32.730469 -7.171875 29.328125 -5.792969 25.28125 -5.792969 C 21.238281 -5.792969 17.742188 -7.171875 14.894531 -10.113281 C 11.953125 -12.960938 10.574219 -16.363281 10.574219 -20.410156 C 10.574219 -24.453125 11.953125 -27.855469 14.894531 -30.796875 C 17.742188 -33.648438 21.238281 -35.121094 25.28125 -35.121094 C 29.328125 -35.121094 32.730469 -33.648438 35.671875 -30.796875 C 38.519531 -27.855469 39.992188 -24.453125 39.992188 -20.410156 Z M 46.425781 -20.410156 C 46.425781 -26.203125 44.3125 -31.164062 40.175781 -35.304688 C 36.039062 -39.441406 31.074219 -41.554688 25.28125 -41.554688 C 19.398438 -41.554688 14.433594 -39.441406 10.296875 -35.304688 C 6.160156 -31.164062 4.136719 -26.203125 4.136719 -20.410156 C 4.136719 -14.527344 6.160156 -9.5625 10.296875 -5.515625 C 14.433594 -1.378906 19.492188 0.644531 25.28125 0.644531 C 30.980469 0.644531 36.039062 -1.378906 40.175781 -5.515625 C 44.3125 -9.5625 46.425781 -14.527344 46.425781 -20.410156 Z M 46.425781 -20.410156 "/></g></g></g><g fill="#f2faff" fill-opacity="1"><g transform="translate(646.79015, 730.161368)"><g><path d="M 27.671875 -32.085938 L 27.671875 -40.453125 C 26.386719 -41.003906 25.007812 -41.277344 23.628906 -41.277344 C 19.03125 -41.277344 15.722656 -38.703125 13.605469 -33.738281 L 13.332031 -32.085938 L 13.332031 -40.453125 L 6.894531 -40.453125 L 6.894531 0 L 13.332031 0 L 13.332031 -20.226562 C 13.332031 -23.535156 14.066406 -26.476562 15.628906 -29.144531 C 16.363281 -30.523438 17.375 -31.71875 18.570312 -32.636719 C 19.765625 -33.554688 21.238281 -34.109375 22.890625 -34.109375 C 24.546875 -34.109375 26.109375 -33.371094 27.671875 -32.085938 Z M 27.671875 -32.085938 "/></g></g></g><g fill="#f2faff" fill-opacity="1"><g transform="translate(677.218658, 730.161368)"><g><path d="M 39.074219 -20.226562 C 39.074219 -16.273438 37.695312 -12.777344 34.933594 -9.929688 C 32.175781 -6.988281 28.777344 -5.515625 24.824219 -5.515625 C 20.777344 -5.515625 17.375 -6.988281 14.617188 -9.929688 C 11.859375 -12.777344 10.574219 -16.273438 10.574219 -20.226562 C 10.574219 -24.085938 11.859375 -27.582031 14.617188 -30.523438 C 17.375 -33.464844 20.777344 -34.933594 24.824219 -34.933594 C 28.777344 -34.933594 32.175781 -33.464844 34.933594 -30.523438 C 37.695312 -27.582031 39.074219 -24.085938 39.074219 -20.226562 Z M 45.507812 0 L 45.507812 -40.453125 L 39.074219 -40.453125 L 39.074219 -33.464844 C 38.703125 -34.015625 38.246094 -34.476562 37.878906 -34.933594 C 34.015625 -39.164062 29.328125 -41.371094 23.8125 -41.371094 C 18.203125 -41.371094 13.515625 -39.164062 9.652344 -34.933594 C 5.976562 -30.707031 4.136719 -25.832031 4.136719 -20.226562 C 4.136719 -14.527344 5.976562 -9.652344 9.652344 -5.515625 C 13.515625 -1.195312 18.203125 0.917969 23.8125 0.917969 C 29.328125 0.917969 34.015625 -1.195312 37.878906 -5.515625 C 38.246094 -5.882812 38.703125 -6.34375 39.074219 -6.894531 L 39.074219 0 Z M 45.507812 0 "/></g></g></g><g fill="#f2faff" fill-opacity="1"><g transform="translate(731.456641, 730.161368)"><g><path d="M 34.84375 0 L 41.277344 0 L 41.277344 -25.28125 C 41.277344 -29.972656 39.992188 -33.738281 37.601562 -36.589844 C 36.3125 -38.0625 34.84375 -39.164062 33.097656 -39.992188 C 31.257812 -40.820312 28.960938 -41.277344 26.109375 -41.277344 C 23.167969 -41.277344 20.683594 -40.453125 18.480469 -38.980469 C 16.363281 -37.601562 14.617188 -35.761719 13.332031 -33.464844 L 13.332031 -40.453125 L 6.894531 -40.453125 L 6.894531 0 L 13.332031 0 L 13.332031 -16.917969 C 13.332031 -22.0625 14.25 -26.109375 16.179688 -29.144531 C 17.285156 -30.796875 18.664062 -32.175781 20.410156 -33.28125 C 22.0625 -34.292969 24.363281 -34.84375 27.121094 -34.84375 C 29.878906 -34.84375 31.808594 -33.832031 33.003906 -31.992188 C 34.199219 -30.15625 34.84375 -27.855469 34.84375 -25.28125 Z M 34.84375 0 "/></g></g></g><g fill="#f2faff" fill-opacity="1"><g transform="translate(780.086985, 730.161368)"><g><path d="M 39.074219 -20.226562 C 39.074219 -16.273438 37.695312 -12.777344 34.933594 -9.929688 C 32.175781 -6.988281 28.777344 -5.515625 24.824219 -5.515625 C 20.777344 -5.515625 17.375 -6.988281 14.617188 -9.929688 C 11.859375 -12.777344 10.574219 -16.273438 10.574219 -20.226562 C 10.574219 -24.085938 11.859375 -27.582031 14.617188 -30.523438 C 17.375 -33.464844 20.777344 -34.933594 24.824219 -34.933594 C 28.777344 -34.933594 32.175781 -33.464844 34.933594 -30.523438 C 37.695312 -27.582031 39.074219 -24.085938 39.074219 -20.226562 Z M 45.507812 0 L 45.507812 -68.953125 L 39.074219 -68.953125 L 39.074219 -33.464844 C 38.703125 -34.015625 38.246094 -34.476562 37.878906 -34.933594 C 34.015625 -39.164062 29.328125 -41.371094 23.8125 -41.371094 C 18.203125 -41.371094 13.515625 -39.164062 9.652344 -34.933594 C 5.976562 -30.707031 4.136719 -25.832031 4.136719 -20.226562 C 4.136719 -14.527344 5.976562 -9.652344 9.652344 -5.515625 C 13.515625 -1.195312 18.203125 0.917969 23.8125 0.917969 C 29.328125 0.917969 34.015625 -1.195312 37.878906 -5.515625 C 38.246094 -5.882812 38.703125 -6.34375 39.074219 -6.894531 L 39.074219 0 Z M 45.507812 0 "/></g></g></g><g fill="#f2faff" fill-opacity="1"><g transform="translate(834.324968, 730.161368)"><g><path d="M 39.992188 -20.410156 C 39.992188 -16.363281 38.519531 -12.960938 35.671875 -10.113281 C 32.730469 -7.171875 29.328125 -5.792969 25.28125 -5.792969 C 21.238281 -5.792969 17.742188 -7.171875 14.894531 -10.113281 C 11.953125 -12.960938 10.574219 -16.363281 10.574219 -20.410156 C 10.574219 -24.453125 11.953125 -27.855469 14.894531 -30.796875 C 17.742188 -33.648438 21.238281 -35.121094 25.28125 -35.121094 C 29.328125 -35.121094 32.730469 -33.648438 35.671875 -30.796875 C 38.519531 -27.855469 39.992188 -24.453125 39.992188 -20.410156 Z M 46.425781 -20.410156 C 46.425781 -26.203125 44.3125 -31.164062 40.175781 -35.304688 C 36.039062 -39.441406 31.074219 -41.554688 25.28125 -41.554688 C 19.398438 -41.554688 14.433594 -39.441406 10.296875 -35.304688 C 6.160156 -31.164062 4.136719 -26.203125 4.136719 -20.410156 C 4.136719 -14.527344 6.160156 -9.5625 10.296875 -5.515625 C 14.433594 -1.378906 19.492188 0.644531 25.28125 0.644531 C 30.980469 0.644531 36.039062 -1.378906 40.175781 -5.515625 C 44.3125 -9.5625 46.425781 -14.527344 46.425781 -20.410156 Z M 46.425781 -20.410156 "/></g></g></g><g fill="#f2faff" fill-opacity="1"><g transform="translate(886.724407, 730.161368)"><g/></g></g><g fill="#f2faff" fill-opacity="1"><g transform="translate(913.383821, 730.161368)"><g><path d="M 39.074219 -20.226562 C 39.074219 -16.273438 37.695312 -12.777344 34.933594 -9.929688 C 32.175781 -6.988281 28.777344 -5.515625 24.824219 -5.515625 C 20.777344 -5.515625 17.375 -6.988281 14.617188 -9.929688 C 11.859375 -12.777344 10.574219 -16.273438 10.574219 -20.226562 C 10.574219 -24.085938 11.859375 -27.582031 14.617188 -30.523438 C 17.375 -33.464844 20.777344 -34.933594 24.824219 -34.933594 C 28.777344 -34.933594 32.175781 -33.464844 34.933594 -30.523438 C 37.695312 -27.582031 39.074219 -24.085938 39.074219 -20.226562 Z M 45.507812 0 L 45.507812 -40.453125 L 39.074219 -40.453125 L 39.074219 -33.464844 C 38.703125 -34.015625 38.246094 -34.476562 37.878906 -34.933594 C 34.015625 -39.164062 29.328125 -41.371094 23.8125 -41.371094 C 18.203125 -41.371094 13.515625 -39.164062 9.652344 -34.933594 C 5.976562 -30.707031 4.136719 -25.832031 4.136719 -20.226562 C 4.136719 -14.527344 5.976562 -9.652344 9.652344 -5.515625 C 13.515625 -1.195312 18.203125 0.917969 23.8125 0.917969 C 29.328125 0.917969 34.015625 -1.195312 37.878906 -5.515625 C 38.246094 -5.882812 38.703125 -6.34375 39.074219 -6.894531 L 39.074219 0 Z M 45.507812 0 "/></g></g></g><g fill="#f2faff" fill-opacity="1"><g transform="translate(967.621833, 730.161368)"><g/></g></g><g fill="#f2faff" fill-opacity="1"><g transform="translate(994.281246, 730.161368)"><g><path d="M 13.332031 22.984375 L 13.332031 -6.894531 C 13.605469 -6.34375 14.066406 -5.882812 14.433594 -5.515625 C 18.296875 -1.195312 22.984375 0.917969 28.59375 0.917969 C 34.109375 0.917969 38.796875 -1.195312 42.65625 -5.515625 C 46.335938 -9.652344 48.265625 -14.527344 48.265625 -20.226562 C 48.265625 -25.832031 46.335938 -30.707031 42.65625 -34.933594 C 38.796875 -39.164062 34.109375 -41.371094 28.59375 -41.371094 C 22.984375 -41.371094 18.296875 -39.164062 14.433594 -34.933594 C 14.066406 -34.476562 13.605469 -34.015625 13.332031 -33.464844 L 13.332031 -40.453125 L 6.894531 -40.453125 L 6.894531 22.984375 Z M 41.832031 -20.226562 C 41.832031 -16.273438 40.453125 -12.777344 37.695312 -9.929688 C 34.933594 -6.988281 31.535156 -5.515625 27.582031 -5.515625 C 23.535156 -5.515625 20.132812 -6.988281 17.375 -9.929688 C 14.617188 -12.777344 13.332031 -16.273438 13.332031 -20.226562 C 13.332031 -24.085938 14.617188 -27.582031 17.375 -30.523438 C 20.132812 -33.464844 23.535156 -34.933594 27.582031 -34.933594 C 31.535156 -34.933594 34.933594 -33.464844 37.695312 -30.523438 C 40.453125 -27.582031 41.832031 -24.085938 41.832031 -20.226562 Z M 41.832031 -20.226562 "/></g></g></g><g fill="#f2faff" fill-opacity="1"><g transform="translate(1048.519258, 730.161368)"><g><path d="M 27.671875 -32.085938 L 27.671875 -40.453125 C 26.386719 -41.003906 25.007812 -41.277344 23.628906 -41.277344 C 19.03125 -41.277344 15.722656 -38.703125 13.605469 -33.738281 L 13.332031 -32.085938 L 13.332031 -40.453125 L 6.894531 -40.453125 L 6.894531 0 L 13.332031 0 L 13.332031 -20.226562 C 13.332031 -23.535156 14.066406 -26.476562 15.628906 -29.144531 C 16.363281 -30.523438 17.375 -31.71875 18.570312 -32.636719 C 19.765625 -33.554688 21.238281 -34.109375 22.890625 -34.109375 C 24.546875 -34.109375 26.109375 -33.371094 27.671875 -32.085938 Z M 27.671875 -32.085938 "/></g></g></g><g fill="#f2faff" fill-opacity="1"><g transform="translate(1078.947766, 730.161368)"><g><path d="M 46.425781 -21.144531 C 46.425781 -26.660156 44.222656 -31.441406 39.992188 -35.578125 C 35.855469 -39.53125 30.890625 -41.554688 25.28125 -41.554688 C 19.398438 -41.554688 14.433594 -39.441406 10.296875 -35.304688 C 6.160156 -31.164062 4.136719 -26.203125 4.136719 -20.410156 C 4.136719 -14.527344 6.160156 -9.5625 10.296875 -5.515625 C 12.226562 -3.585938 14.433594 -2.113281 17.007812 -1.011719 C 19.582031 0.09375 22.617188 0.644531 26.203125 0.644531 C 29.785156 0.644531 33.28125 -0.460938 36.773438 -2.667969 C 40.269531 -4.871094 42.839844 -8 44.589844 -11.859375 L 37.234375 -11.859375 C 35.761719 -9.929688 34.015625 -8.457031 31.902344 -7.355469 C 29.785156 -6.25 27.582031 -5.792969 25.28125 -5.792969 C 21.789062 -5.792969 18.664062 -6.894531 15.90625 -9.195312 C 13.148438 -11.398438 11.398438 -14.25 10.847656 -17.742188 L 46.425781 -17.742188 Z M 39.625 -23.257812 L 10.941406 -23.257812 C 11.308594 -24.914062 11.953125 -26.476562 12.871094 -27.949219 C 15.8125 -32.730469 19.949219 -35.121094 25.28125 -35.121094 C 28.683594 -35.121094 31.71875 -34.015625 34.382812 -31.808594 C 37.140625 -29.511719 38.796875 -26.660156 39.625 -23.257812 Z M 39.625 -23.257812 "/></g></g></g><g fill="#f2faff" fill-opacity="1"><g transform="translate(1130.887528, 730.161368)"><g><path d="M 12.6875 -5.699219 C 11.125 -6.804688 9.929688 -8.640625 9.285156 -11.308594 L 2.480469 -11.308594 C 3.859375 -2.941406 9.195312 1.195312 18.570312 1.195312 C 20.777344 1.195312 22.800781 1.011719 24.730469 0.460938 C 26.660156 -0.09375 28.316406 -0.828125 29.878906 -1.839844 C 33.003906 -3.953125 34.566406 -7.171875 34.566406 -11.492188 C 34.566406 -15.90625 32.546875 -19.03125 28.316406 -21.054688 C 26.570312 -21.878906 24.636719 -22.523438 22.523438 -22.984375 C 20.5 -23.445312 18.570312 -23.996094 16.824219 -24.546875 C 14.984375 -25.097656 13.515625 -25.832031 12.320312 -26.660156 C 11.125 -27.488281 10.480469 -28.777344 10.480469 -30.613281 C 10.480469 -32.453125 11.214844 -33.832031 12.6875 -34.660156 C 14.15625 -35.578125 15.90625 -36.039062 17.835938 -36.039062 C 19.859375 -36.039062 21.605469 -35.578125 22.984375 -34.84375 C 24.363281 -34.109375 25.464844 -32.636719 26.109375 -30.429688 L 33.003906 -30.429688 C 32.175781 -34.476562 30.429688 -37.324219 27.855469 -38.886719 C 25.191406 -40.542969 21.972656 -41.371094 18.019531 -41.371094 C 14.15625 -41.371094 10.757812 -40.269531 7.90625 -38.246094 C 5.148438 -36.128906 3.675781 -33.097656 3.675781 -29.050781 C 3.675781 -27.121094 4.230469 -25.375 5.242188 -23.902344 C 6.34375 -22.339844 7.90625 -21.144531 9.929688 -20.226562 C 11.769531 -19.398438 13.699219 -18.753906 15.722656 -18.203125 C 17.742188 -17.742188 19.675781 -17.191406 21.511719 -16.640625 C 25.648438 -15.261719 27.765625 -13.238281 27.765625 -10.664062 C 27.765625 -6.25 24.824219 -4.136719 18.9375 -4.136719 C 16.457031 -4.136719 14.34375 -4.597656 12.6875 -5.699219 Z M 12.6875 -5.699219 "/></g></g></g><g fill="#f2faff" fill-opacity="1"><g transform="translate(1169.681517, 730.161368)"><g><path d="M 1.839844 -34.476562 L 11.953125 -34.476562 L 11.953125 0 L 18.386719 0 L 18.386719 -34.476562 L 28.40625 -34.476562 L 28.40625 -40.453125 L 18.386719 -40.453125 L 18.386719 -56.171875 L 11.953125 -56.171875 L 11.953125 -40.453125 L 1.839844 -40.453125 Z M 1.839844 -34.476562 "/></g></g></g><g fill="#f2faff" fill-opacity="1"><g transform="translate(1201.76472, 730.161368)"><g><path d="M 39.074219 -20.226562 C 39.074219 -16.273438 37.695312 -12.777344 34.933594 -9.929688 C 32.175781 -6.988281 28.777344 -5.515625 24.824219 -5.515625 C 20.777344 -5.515625 17.375 -6.988281 14.617188 -9.929688 C 11.859375 -12.777344 10.574219 -16.273438 10.574219 -20.226562 C 10.574219 -24.085938 11.859375 -27.582031 14.617188 -30.523438 C 17.375 -33.464844 20.777344 -34.933594 24.824219 -34.933594 C 28.777344 -34.933594 32.175781 -33.464844 34.933594 -30.523438 C 37.695312 -27.582031 39.074219 -24.085938 39.074219 -20.226562 Z M 45.507812 0 L 45.507812 -40.453125 L 39.074219 -40.453125 L 39.074219 -33.464844 C 38.703125 -34.015625 38.246094 -34.476562 37.878906 -34.933594 C 34.015625 -39.164062 29.328125 -41.371094 23.8125 -41.371094 C 18.203125 -41.371094 13.515625 -39.164062 9.652344 -34.933594 C 5.976562 -30.707031 4.136719 -25.832031 4.136719 -20.226562 C 4.136719 -14.527344 5.976562 -9.652344 9.652344 -5.515625 C 13.515625 -1.195312 18.203125 0.917969 23.8125 0.917969 C 29.328125 0.917969 34.015625 -1.195312 37.878906 -5.515625 C 38.246094 -5.882812 38.703125 -6.34375 39.074219 -6.894531 L 39.074219 0 Z M 45.507812 0 "/></g></g></g><g fill="#f2faff" fill-opacity="1"><g transform="translate(1256.002731, 730.161368)"><g><path d="M 44.679688 -25.925781 C 43.394531 -30.429688 40.910156 -34.109375 37.324219 -36.957031 C 33.554688 -39.808594 29.417969 -41.277344 24.824219 -41.277344 C 19.03125 -41.277344 14.066406 -39.164062 10.113281 -35.027344 C 6.066406 -30.890625 4.136719 -25.925781 4.136719 -20.226562 C 4.136719 -14.433594 6.066406 -9.5625 10.113281 -5.332031 C 11.953125 -3.402344 14.066406 -1.839844 16.640625 -0.734375 C 18.386719 0.09375 20.132812 0.550781 21.878906 0.828125 L 18.019531 9.46875 C 19.214844 9.285156 20.5 9.101562 21.972656 8.824219 C 23.351562 8.640625 24.730469 8.550781 26.019531 8.734375 C 29.417969 9.285156 30.890625 11.125 30.339844 14.34375 C 30.0625 16.363281 28.316406 17.46875 25.097656 17.835938 C 21.972656 18.203125 18.664062 17.742188 15.261719 16.457031 L 12.960938 21.238281 C 17.285156 22.984375 21.511719 23.535156 25.742188 22.984375 C 30.246094 22.339844 33.1875 20.316406 34.660156 16.917969 C 35.945312 13.882812 35.761719 10.941406 34.292969 8.183594 C 33.554688 6.988281 32.636719 5.976562 31.535156 5.242188 C 30.429688 4.503906 29.050781 4.136719 27.582031 4.136719 C 26.109375 4.136719 25.375 4.230469 25.28125 4.230469 L 26.84375 0.828125 C 28.40625 0.644531 29.785156 0.367188 31.164062 -0.09375 C 37.601562 -2.390625 42.015625 -6.710938 44.3125 -13.238281 L 37.050781 -13.238281 C 35.761719 -10.941406 34.109375 -9.101562 31.902344 -7.816406 C 29.695312 -6.433594 27.398438 -5.792969 24.824219 -5.792969 C 20.871094 -5.792969 17.558594 -7.171875 14.800781 -10.019531 C 12.042969 -12.871094 10.757812 -16.273438 10.757812 -20.226562 C 10.757812 -23.996094 12.042969 -27.398438 14.800781 -30.246094 C 16.089844 -31.535156 17.558594 -32.636719 19.304688 -33.371094 C 20.960938 -34.109375 23.074219 -34.566406 25.464844 -34.566406 C 27.855469 -34.566406 30.15625 -33.738281 32.546875 -32.175781 C 34.84375 -30.523438 36.589844 -28.5 37.695312 -25.925781 Z M 44.679688 -25.925781 "/></g></g></g><g fill="#f2faff" fill-opacity="1"><g transform="translate(1305.736253, 730.161368)"><g><path d="M 39.074219 -20.226562 C 39.074219 -16.273438 37.695312 -12.777344 34.933594 -9.929688 C 32.175781 -6.988281 28.777344 -5.515625 24.824219 -5.515625 C 20.777344 -5.515625 17.375 -6.988281 14.617188 -9.929688 C 11.859375 -12.777344 10.574219 -16.273438 10.574219 -20.226562 C 10.574219 -24.085938 11.859375 -27.582031 14.617188 -30.523438 C 17.375 -33.464844 20.777344 -34.933594 24.824219 -34.933594 C 28.777344 -34.933594 32.175781 -33.464844 34.933594 -30.523438 C 37.695312 -27.582031 39.074219 -24.085938 39.074219 -20.226562 Z M 45.507812 0 L 45.507812 -40.453125 L 39.074219 -40.453125 L 39.074219 -33.464844 C 38.703125 -34.015625 38.246094 -34.476562 37.878906 -34.933594 C 34.015625 -39.164062 29.328125 -41.371094 23.8125 -41.371094 C 18.203125 -41.371094 13.515625 -39.164062 9.652344 -34.933594 C 5.976562 -30.707031 4.136719 -25.832031 4.136719 -20.226562 C 4.136719 -14.527344 5.976562 -9.652344 9.652344 -5.515625 C 13.515625 -1.195312 18.203125 0.917969 23.8125 0.917969 C 29.328125 0.917969 34.015625 -1.195312 37.878906 -5.515625 C 38.246094 -5.882812 38.703125 -6.34375 39.074219 -6.894531 L 39.074219 0 Z M 9.652344 -47.621094 L 14.15625 -47.621094 C 13.972656 -48.726562 14.066406 -49.828125 14.34375 -50.75 C 14.800781 -52.863281 16.089844 -53.964844 18.109375 -53.964844 C 19.304688 -53.964844 20.316406 -53.507812 21.054688 -52.769531 C 21.789062 -52.035156 22.523438 -51.117188 23.257812 -50.195312 C 23.996094 -49.277344 25.007812 -48.359375 26.109375 -47.621094 C 27.210938 -46.886719 28.867188 -46.519531 31.257812 -46.519531 C 33.648438 -46.519531 35.394531 -47.070312 36.683594 -48.265625 C 39.164062 -50.65625 40.175781 -53.875 39.808594 -58.011719 L 35.304688 -58.011719 C 35.304688 -55.621094 35.121094 -54.148438 34.84375 -53.414062 C 34.566406 -52.863281 34.199219 -52.402344 33.648438 -52.128906 C 33.097656 -51.757812 32.269531 -51.667969 31.164062 -51.667969 C 30.0625 -51.667969 29.144531 -52.035156 28.40625 -52.769531 C 27.671875 -53.507812 26.9375 -54.425781 26.203125 -55.34375 C 25.464844 -56.265625 24.546875 -57.089844 23.445312 -57.828125 C 22.339844 -58.5625 20.59375 -59.023438 18.386719 -59.023438 C 16.089844 -59.023438 14.34375 -58.378906 13.054688 -57.183594 C 10.664062 -54.886719 9.46875 -51.667969 9.652344 -47.621094 Z M 9.652344 -47.621094 "/></g></g></g><g fill="#f2faff" fill-opacity="1"><g transform="translate(1359.974265, 730.161368)"><g><path d="M 39.992188 -20.410156 C 39.992188 -16.363281 38.519531 -12.960938 35.671875 -10.113281 C 32.730469 -7.171875 29.328125 -5.792969 25.28125 -5.792969 C 21.238281 -5.792969 17.742188 -7.171875 14.894531 -10.113281 C 11.953125 -12.960938 10.574219 -16.363281 10.574219 -20.410156 C 10.574219 -24.453125 11.953125 -27.855469 14.894531 -30.796875 C 17.742188 -33.648438 21.238281 -35.121094 25.28125 -35.121094 C 29.328125 -35.121094 32.730469 -33.648438 35.671875 -30.796875 C 38.519531 -27.855469 39.992188 -24.453125 39.992188 -20.410156 Z M 46.425781 -20.410156 C 46.425781 -26.203125 44.3125 -31.164062 40.175781 -35.304688 C 36.039062 -39.441406 31.074219 -41.554688 25.28125 -41.554688 C 19.398438 -41.554688 14.433594 -39.441406 10.296875 -35.304688 C 6.160156 -31.164062 4.136719 -26.203125 4.136719 -20.410156 C 4.136719 -14.527344 6.160156 -9.5625 10.296875 -5.515625 C 14.433594 -1.378906 19.492188 0.644531 25.28125 0.644531 C 30.980469 0.644531 36.039062 -1.378906 40.175781 -5.515625 C 44.3125 -9.5625 46.425781 -14.527344 46.425781 -20.410156 Z M 46.425781 -20.410156 "/></g></g></g><g fill="#f2faff" fill-opacity="1"><g transform="translate(1412.373676, 730.161368)"><g/></g></g><g fill="#f2faff" fill-opacity="1"><g transform="translate(1439.033147, 730.161368)"><g><path d="M 39.074219 -20.226562 C 39.074219 -16.273438 37.695312 -12.777344 34.933594 -9.929688 C 32.175781 -6.988281 28.777344 -5.515625 24.824219 -5.515625 C 20.777344 -5.515625 17.375 -6.988281 14.617188 -9.929688 C 11.859375 -12.777344 10.574219 -16.273438 10.574219 -20.226562 C 10.574219 -24.085938 11.859375 -27.582031 14.617188 -30.523438 C 17.375 -33.464844 20.777344 -34.933594 24.824219 -34.933594 C 28.777344 -34.933594 32.175781 -33.464844 34.933594 -30.523438 C 37.695312 -27.582031 39.074219 -24.085938 39.074219 -20.226562 Z M 45.507812 0 L 45.507812 -68.953125 L 39.074219 -68.953125 L 39.074219 -33.464844 C 38.703125 -34.015625 38.246094 -34.476562 37.878906 -34.933594 C 34.015625 -39.164062 29.328125 -41.371094 23.8125 -41.371094 C 18.203125 -41.371094 13.515625 -39.164062 9.652344 -34.933594 C 5.976562 -30.707031 4.136719 -25.832031 4.136719 -20.226562 C 4.136719 -14.527344 5.976562 -9.652344 9.652344 -5.515625 C 13.515625 -1.195312 18.203125 0.917969 23.8125 0.917969 C 29.328125 0.917969 34.015625 -1.195312 37.878906 -5.515625 C 38.246094 -5.882812 38.703125 -6.34375 39.074219 -6.894531 L 39.074219 0 Z M 45.507812 0 "/></g></g></g><g fill="#f2faff" fill-opacity="1"><g transform="translate(1493.271159, 730.161368)"><g><path d="M 46.425781 -21.144531 C 46.425781 -26.660156 44.222656 -31.441406 39.992188 -35.578125 C 35.855469 -39.53125 30.890625 -41.554688 25.28125 -41.554688 C 19.398438 -41.554688 14.433594 -39.441406 10.296875 -35.304688 C 6.160156 -31.164062 4.136719 -26.203125 4.136719 -20.410156 C 4.136719 -14.527344 6.160156 -9.5625 10.296875 -5.515625 C 12.226562 -3.585938 14.433594 -2.113281 17.007812 -1.011719 C 19.582031 0.09375 22.617188 0.644531 26.203125 0.644531 C 29.785156 0.644531 33.28125 -0.460938 36.773438 -2.667969 C 40.269531 -4.871094 42.839844 -8 44.589844 -11.859375 L 37.234375 -11.859375 C 35.761719 -9.929688 34.015625 -8.457031 31.902344 -7.355469 C 29.785156 -6.25 27.582031 -5.792969 25.28125 -5.792969 C 21.789062 -5.792969 18.664062 -6.894531 15.90625 -9.195312 C 13.148438 -11.398438 11.398438 -14.25 10.847656 -17.742188 L 46.425781 -17.742188 Z M 39.625 -23.257812 L 10.941406 -23.257812 C 11.308594 -24.914062 11.953125 -26.476562 12.871094 -27.949219 C 15.8125 -32.730469 19.949219 -35.121094 25.28125 -35.121094 C 28.683594 -35.121094 31.71875 -34.015625 34.382812 -31.808594 C 37.140625 -29.511719 38.796875 -26.660156 39.625 -23.257812 Z M 39.625 -23.257812 "/></g></g></g><g fill="#f2faff" fill-opacity="1"><g transform="translate(1545.210978, 730.161368)"><g/></g></g><g fill="#f2faff" fill-opacity="1"><g transform="translate(1571.870449, 730.161368)"><g><path d="M 12.6875 -5.699219 C 11.125 -6.804688 9.929688 -8.640625 9.285156 -11.308594 L 2.480469 -11.308594 C 3.859375 -2.941406 9.195312 1.195312 18.570312 1.195312 C 20.777344 1.195312 22.800781 1.011719 24.730469 0.460938 C 26.660156 -0.09375 28.316406 -0.828125 29.878906 -1.839844 C 33.003906 -3.953125 34.566406 -7.171875 34.566406 -11.492188 C 34.566406 -15.90625 32.546875 -19.03125 28.316406 -21.054688 C 26.570312 -21.878906 24.636719 -22.523438 22.523438 -22.984375 C 20.5 -23.445312 18.570312 -23.996094 16.824219 -24.546875 C 14.984375 -25.097656 13.515625 -25.832031 12.320312 -26.660156 C 11.125 -27.488281 10.480469 -28.777344 10.480469 -30.613281 C 10.480469 -32.453125 11.214844 -33.832031 12.6875 -34.660156 C 14.15625 -35.578125 15.90625 -36.039062 17.835938 -36.039062 C 19.859375 -36.039062 21.605469 -35.578125 22.984375 -34.84375 C 24.363281 -34.109375 25.464844 -32.636719 26.109375 -30.429688 L 33.003906 -30.429688 C 32.175781 -34.476562 30.429688 -37.324219 27.855469 -38.886719 C 25.191406 -40.542969 21.972656 -41.371094 18.019531 -41.371094 C 14.15625 -41.371094 10.757812 -40.269531 7.90625 -38.246094 C 5.148438 -36.128906 3.675781 -33.097656 3.675781 -29.050781 C 3.675781 -27.121094 4.230469 -25.375 5.242188 -23.902344 C 6.34375 -22.339844 7.90625 -21.144531 9.929688 -20.226562 C 11.769531 -19.398438 13.699219 -18.753906 15.722656 -18.203125 C 17.742188 -17.742188 19.675781 -17.191406 21.511719 -16.640625 C 25.648438 -15.261719 27.765625 -13.238281 27.765625 -10.664062 C 27.765625 -6.25 24.824219 -4.136719 18.9375 -4.136719 C 16.457031 -4.136719 14.34375 -4.597656 12.6875 -5.699219 Z M 12.6875 -5.699219 "/></g></g></g><g fill="#f2faff" fill-opacity="1"><g transform="translate(1610.664496, 730.161368)"><g><path d="M 46.425781 -21.144531 C 46.425781 -26.660156 44.222656 -31.441406 39.992188 -35.578125 C 35.855469 -39.53125 30.890625 -41.554688 25.28125 -41.554688 C 19.398438 -41.554688 14.433594 -39.441406 10.296875 -35.304688 C 6.160156 -31.164062 4.136719 -26.203125 4.136719 -20.410156 C 4.136719 -14.527344 6.160156 -9.5625 10.296875 -5.515625 C 12.226562 -3.585938 14.433594 -2.113281 17.007812 -1.011719 C 19.582031 0.09375 22.617188 0.644531 26.203125 0.644531 C 29.785156 0.644531 33.28125 -0.460938 36.773438 -2.667969 C 40.269531 -4.871094 42.839844 -8 44.589844 -11.859375 L 37.234375 -11.859375 C 35.761719 -9.929688 34.015625 -8.457031 31.902344 -7.355469 C 29.785156 -6.25 27.582031 -5.792969 25.28125 -5.792969 C 21.789062 -5.792969 18.664062 -6.894531 15.90625 -9.195312 C 13.148438 -11.398438 11.398438 -14.25 10.847656 -17.742188 L 46.425781 -17.742188 Z M 39.625 -23.257812 L 10.941406 -23.257812 C 11.308594 -24.914062 11.953125 -26.476562 12.871094 -27.949219 C 15.8125 -32.730469 19.949219 -35.121094 25.28125 -35.121094 C 28.683594 -35.121094 31.71875 -34.015625 34.382812 -31.808594 C 37.140625 -29.511719 38.796875 -26.660156 39.625 -23.257812 Z M 39.625 -23.257812 "/></g></g></g><g fill="#f2faff" fill-opacity="1"><g transform="translate(1662.604315, 730.161368)"><g><path d="M 27.671875 -32.085938 L 27.671875 -40.453125 C 26.386719 -41.003906 25.007812 -41.277344 23.628906 -41.277344 C 19.03125 -41.277344 15.722656 -38.703125 13.605469 -33.738281 L 13.332031 -32.085938 L 13.332031 -40.453125 L 6.894531 -40.453125 L 6.894531 0 L 13.332031 0 L 13.332031 -20.226562 C 13.332031 -23.535156 14.066406 -26.476562 15.628906 -29.144531 C 16.363281 -30.523438 17.375 -31.71875 18.570312 -32.636719 C 19.765625 -33.554688 21.238281 -34.109375 22.890625 -34.109375 C 24.546875 -34.109375 26.109375 -33.371094 27.671875 -32.085938 Z M 27.671875 -32.085938 "/></g></g></g><g fill="#f2faff" fill-opacity="1"><g transform="translate(1693.032766, 730.161368)"><g><path d="M 19.582031 3.859375 L 38.152344 -40.453125 L 31.164062 -40.453125 L 19.582031 -10.386719 L 7.90625 -40.453125 L 0.917969 -40.453125 Z M 19.582031 3.859375 "/></g></g></g><g fill="#f2faff" fill-opacity="1"><g transform="translate(1733.941099, 730.161368)"><g><path d="M 13.421875 -54.425781 C 12.59375 -55.160156 11.582031 -55.621094 10.480469 -55.621094 C 9.378906 -55.621094 8.367188 -55.160156 7.628906 -54.425781 C 6.804688 -53.597656 6.433594 -52.585938 6.433594 -51.484375 C 6.433594 -50.378906 6.804688 -49.371094 7.628906 -48.632812 C 8.367188 -47.804688 9.378906 -47.4375 10.480469 -47.4375 C 11.582031 -47.4375 12.59375 -47.804688 13.421875 -48.632812 C 14.15625 -49.371094 14.617188 -50.378906 14.617188 -51.484375 C 14.617188 -52.585938 14.15625 -53.597656 13.421875 -54.425781 Z M 13.789062 0 L 13.789062 -40.453125 L 7.355469 -40.453125 L 7.355469 0 Z M 13.789062 0 "/></g></g></g><g fill="#f2faff" fill-opacity="1"><g transform="translate(1756.831474, 730.161368)"><g><path d="M 44.679688 -25.925781 C 43.394531 -30.429688 40.910156 -34.109375 37.324219 -36.957031 C 33.554688 -39.808594 29.417969 -41.277344 24.824219 -41.277344 C 19.03125 -41.277344 14.066406 -39.164062 10.113281 -35.027344 C 6.066406 -30.890625 4.136719 -25.925781 4.136719 -20.226562 C 4.136719 -14.433594 6.066406 -9.5625 10.113281 -5.332031 C 11.953125 -3.402344 14.066406 -1.839844 16.640625 -0.734375 C 18.386719 0.09375 20.132812 0.550781 21.878906 0.828125 L 18.019531 9.46875 C 19.214844 9.285156 20.5 9.101562 21.972656 8.824219 C 23.351562 8.640625 24.730469 8.550781 26.019531 8.734375 C 29.417969 9.285156 30.890625 11.125 30.339844 14.34375 C 30.0625 16.363281 28.316406 17.46875 25.097656 17.835938 C 21.972656 18.203125 18.664062 17.742188 15.261719 16.457031 L 12.960938 21.238281 C 17.285156 22.984375 21.511719 23.535156 25.742188 22.984375 C 30.246094 22.339844 33.1875 20.316406 34.660156 16.917969 C 35.945312 13.882812 35.761719 10.941406 34.292969 8.183594 C 33.554688 6.988281 32.636719 5.976562 31.535156 5.242188 C 30.429688 4.503906 29.050781 4.136719 27.582031 4.136719 C 26.109375 4.136719 25.375 4.230469 25.28125 4.230469 L 26.84375 0.828125 C 28.40625 0.644531 29.785156 0.367188 31.164062 -0.09375 C 37.601562 -2.390625 42.015625 -6.710938 44.3125 -13.238281 L 37.050781 -13.238281 C 35.761719 -10.941406 34.109375 -9.101562 31.902344 -7.816406 C 29.695312 -6.433594 27.398438 -5.792969 24.824219 -5.792969 C 20.871094 -5.792969 17.558594 -7.171875 14.800781 -10.019531 C 12.042969 -12.871094 10.757812 -16.273438 10.757812 -20.226562 C 10.757812 -23.996094 12.042969 -27.398438 14.800781 -30.246094 C 16.089844 -31.535156 17.558594 -32.636719 19.304688 -33.371094 C 20.960938 -34.109375 23.074219 -34.566406 25.464844 -34.566406 C 27.855469 -34.566406 30.15625 -33.738281 32.546875 -32.175781 C 34.84375 -30.523438 36.589844 -28.5 37.695312 -25.925781 Z M 44.679688 -25.925781 "/></g></g></g><g fill="#f2faff" fill-opacity="1"><g transform="translate(1806.564996, 730.161368)"><g><path d="M 39.992188 -20.410156 C 39.992188 -16.363281 38.519531 -12.960938 35.671875 -10.113281 C 32.730469 -7.171875 29.328125 -5.792969 25.28125 -5.792969 C 21.238281 -5.792969 17.742188 -7.171875 14.894531 -10.113281 C 11.953125 -12.960938 10.574219 -16.363281 10.574219 -20.410156 C 10.574219 -24.453125 11.953125 -27.855469 14.894531 -30.796875 C 17.742188 -33.648438 21.238281 -35.121094 25.28125 -35.121094 C 29.328125 -35.121094 32.730469 -33.648438 35.671875 -30.796875 C 38.519531 -27.855469 39.992188 -24.453125 39.992188 -20.410156 Z M 46.425781 -20.410156 C 46.425781 -26.203125 44.3125 -31.164062 40.175781 -35.304688 C 36.039062 -39.441406 31.074219 -41.554688 25.28125 -41.554688 C 19.398438 -41.554688 14.433594 -39.441406 10.296875 -35.304688 C 6.160156 -31.164062 4.136719 -26.203125 4.136719 -20.410156 C 4.136719 -14.527344 6.160156 -9.5625 10.296875 -5.515625 C 14.433594 -1.378906 19.492188 0.644531 25.28125 0.644531 C 30.980469 0.644531 36.039062 -1.378906 40.175781 -5.515625 C 44.3125 -9.5625 46.425781 -14.527344 46.425781 -20.410156 Z M 46.425781 -20.410156 "/></g></g></g><g fill="#f2faff" fill-opacity="1"><g transform="translate(1858.964407, 730.161368)"><g><path d="M 12.6875 -5.699219 C 11.125 -6.804688 9.929688 -8.640625 9.285156 -11.308594 L 2.480469 -11.308594 C 3.859375 -2.941406 9.195312 1.195312 18.570312 1.195312 C 20.777344 1.195312 22.800781 1.011719 24.730469 0.460938 C 26.660156 -0.09375 28.316406 -0.828125 29.878906 -1.839844 C 33.003906 -3.953125 34.566406 -7.171875 34.566406 -11.492188 C 34.566406 -15.90625 32.546875 -19.03125 28.316406 -21.054688 C 26.570312 -21.878906 24.636719 -22.523438 22.523438 -22.984375 C 20.5 -23.445312 18.570312 -23.996094 16.824219 -24.546875 C 14.984375 -25.097656 13.515625 -25.832031 12.320312 -26.660156 C 11.125 -27.488281 10.480469 -28.777344 10.480469 -30.613281 C 10.480469 -32.453125 11.214844 -33.832031 12.6875 -34.660156 C 14.15625 -35.578125 15.90625 -36.039062 17.835938 -36.039062 C 19.859375 -36.039062 21.605469 -35.578125 22.984375 -34.84375 C 24.363281 -34.109375 25.464844 -32.636719 26.109375 -30.429688 L 33.003906 -30.429688 C 32.175781 -34.476562 30.429688 -37.324219 27.855469 -38.886719 C 25.191406 -40.542969 21.972656 -41.371094 18.019531 -41.371094 C 14.15625 -41.371094 10.757812 -40.269531 7.90625 -38.246094 C 5.148438 -36.128906 3.675781 -33.097656 3.675781 -29.050781 C 3.675781 -27.121094 4.230469 -25.375 5.242188 -23.902344 C 6.34375 -22.339844 7.90625 -21.144531 9.929688 -20.226562 C 11.769531 -19.398438 13.699219 -18.753906 15.722656 -18.203125 C 17.742188 -17.742188 19.675781 -17.191406 21.511719 -16.640625 C 25.648438 -15.261719 27.765625 -13.238281 27.765625 -10.664062 C 27.765625 -6.25 24.824219 -4.136719 18.9375 -4.136719 C 16.457031 -4.136719 14.34375 -4.597656 12.6875 -5.699219 Z M 12.6875 -5.699219 "/></g></g></g><g fill="#f2faff" fill-opacity="1"><g transform="translate(1897.758454, 730.161368)"><g/></g></g><g fill="#f2faff" fill-opacity="1"><g transform="translate(1924.417925, 730.161368)"><g><path d="M 39.074219 -20.226562 C 39.074219 -16.273438 37.695312 -12.777344 34.933594 -9.929688 C 32.175781 -6.988281 28.777344 -5.515625 24.824219 -5.515625 C 20.777344 -5.515625 17.375 -6.988281 14.617188 -9.929688 C 11.859375 -12.777344 10.574219 -16.273438 10.574219 -20.226562 C 10.574219 -24.085938 11.859375 -27.582031 14.617188 -30.523438 C 17.375 -33.464844 20.777344 -34.933594 24.824219 -34.933594 C 28.777344 -34.933594 32.175781 -33.464844 34.933594 -30.523438 C 37.695312 -27.582031 39.074219 -24.085938 39.074219 -20.226562 Z M 45.507812 0 L 45.507812 -68.953125 L 39.074219 -68.953125 L 39.074219 -33.464844 C 38.703125 -34.015625 38.246094 -34.476562 37.878906 -34.933594 C 34.015625 -39.164062 29.328125 -41.371094 23.8125 -41.371094 C 18.203125 -41.371094 13.515625 -39.164062 9.652344 -34.933594 C 5.976562 -30.707031 4.136719 -25.832031 4.136719 -20.226562 C 4.136719 -14.527344 5.976562 -9.652344 9.652344 -5.515625 C 13.515625 -1.195312 18.203125 0.917969 23.8125 0.917969 C 29.328125 0.917969 34.015625 -1.195312 37.878906 -5.515625 C 38.246094 -5.882812 38.703125 -6.34375 39.074219 -6.894531 L 39.074219 0 Z M 45.507812 0 "/></g></g></g><g fill="#f2faff" fill-opacity="1"><g transform="translate(1978.655937, 730.161368)"><g><path d="M 46.425781 -21.144531 C 46.425781 -26.660156 44.222656 -31.441406 39.992188 -35.578125 C 35.855469 -39.53125 30.890625 -41.554688 25.28125 -41.554688 C 19.398438 -41.554688 14.433594 -39.441406 10.296875 -35.304688 C 6.160156 -31.164062 4.136719 -26.203125 4.136719 -20.410156 C 4.136719 -14.527344 6.160156 -9.5625 10.296875 -5.515625 C 12.226562 -3.585938 14.433594 -2.113281 17.007812 -1.011719 C 19.582031 0.09375 22.617188 0.644531 26.203125 0.644531 C 29.785156 0.644531 33.28125 -0.460938 36.773438 -2.667969 C 40.269531 -4.871094 42.839844 -8 44.589844 -11.859375 L 37.234375 -11.859375 C 35.761719 -9.929688 34.015625 -8.457031 31.902344 -7.355469 C 29.785156 -6.25 27.582031 -5.792969 25.28125 -5.792969 C 21.789062 -5.792969 18.664062 -6.894531 15.90625 -9.195312 C 13.148438 -11.398438 11.398438 -14.25 10.847656 -17.742188 L 46.425781 -17.742188 Z M 39.625 -23.257812 L 10.941406 -23.257812 C 11.308594 -24.914062 11.953125 -26.476562 12.871094 -27.949219 C 15.8125 -32.730469 19.949219 -35.121094 25.28125 -35.121094 C 28.683594 -35.121094 31.71875 -34.015625 34.382812 -31.808594 C 37.140625 -29.511719 38.796875 -26.660156 39.625 -23.257812 Z M 39.625 -23.257812 "/></g></g></g><g fill="#f2faff" fill-opacity="1"><g transform="translate(2030.595756, 730.161368)"><g/></g></g><g fill="#f2faff" fill-opacity="1"><g transform="translate(2057.255227, 730.161368)"><g><path d="M 12.6875 -5.699219 C 11.125 -6.804688 9.929688 -8.640625 9.285156 -11.308594 L 2.480469 -11.308594 C 3.859375 -2.941406 9.195312 1.195312 18.570312 1.195312 C 20.777344 1.195312 22.800781 1.011719 24.730469 0.460938 C 26.660156 -0.09375 28.316406 -0.828125 29.878906 -1.839844 C 33.003906 -3.953125 34.566406 -7.171875 34.566406 -11.492188 C 34.566406 -15.90625 32.546875 -19.03125 28.316406 -21.054688 C 26.570312 -21.878906 24.636719 -22.523438 22.523438 -22.984375 C 20.5 -23.445312 18.570312 -23.996094 16.824219 -24.546875 C 14.984375 -25.097656 13.515625 -25.832031 12.320312 -26.660156 C 11.125 -27.488281 10.480469 -28.777344 10.480469 -30.613281 C 10.480469 -32.453125 11.214844 -33.832031 12.6875 -34.660156 C 14.15625 -35.578125 15.90625 -36.039062 17.835938 -36.039062 C 19.859375 -36.039062 21.605469 -35.578125 22.984375 -34.84375 C 24.363281 -34.109375 25.464844 -32.636719 26.109375 -30.429688 L 33.003906 -30.429688 C 32.175781 -34.476562 30.429688 -37.324219 27.855469 -38.886719 C 25.191406 -40.542969 21.972656 -41.371094 18.019531 -41.371094 C 14.15625 -41.371094 10.757812 -40.269531 7.90625 -38.246094 C 5.148438 -36.128906 3.675781 -33.097656 3.675781 -29.050781 C 3.675781 -27.121094 4.230469 -25.375 5.242188 -23.902344 C 6.34375 -22.339844 7.90625 -21.144531 9.929688 -20.226562 C 11.769531 -19.398438 13.699219 -18.753906 15.722656 -18.203125 C 17.742188 -17.742188 19.675781 -17.191406 21.511719 -16.640625 C 25.648438 -15.261719 27.765625 -13.238281 27.765625 -10.664062 C 27.765625 -6.25 24.824219 -4.136719 18.9375 -4.136719 C 16.457031 -4.136719 14.34375 -4.597656 12.6875 -5.699219 Z M 12.6875 -5.699219 "/></g></g></g><g fill="#f2faff" fill-opacity="1"><g transform="translate(2096.049274, 730.161368)"><g><path d="M 39.074219 -20.226562 C 39.074219 -16.273438 37.695312 -12.777344 34.933594 -9.929688 C 32.175781 -6.988281 28.777344 -5.515625 24.824219 -5.515625 C 20.777344 -5.515625 17.375 -6.988281 14.617188 -9.929688 C 11.859375 -12.777344 10.574219 -16.273438 10.574219 -20.226562 C 10.574219 -24.085938 11.859375 -27.582031 14.617188 -30.523438 C 17.375 -33.464844 20.777344 -34.933594 24.824219 -34.933594 C 28.777344 -34.933594 32.175781 -33.464844 34.933594 -30.523438 C 37.695312 -27.582031 39.074219 -24.085938 39.074219 -20.226562 Z M 45.507812 0 L 45.507812 -40.453125 L 39.074219 -40.453125 L 39.074219 -33.464844 C 38.703125 -34.015625 38.246094 -34.476562 37.878906 -34.933594 C 34.015625 -39.164062 29.328125 -41.371094 23.8125 -41.371094 C 18.203125 -41.371094 13.515625 -39.164062 9.652344 -34.933594 C 5.976562 -30.707031 4.136719 -25.832031 4.136719 -20.226562 C 4.136719 -14.527344 5.976562 -9.652344 9.652344 -5.515625 C 13.515625 -1.195312 18.203125 0.917969 23.8125 0.917969 C 29.328125 0.917969 34.015625 -1.195312 37.878906 -5.515625 C 38.246094 -5.882812 38.703125 -6.34375 39.074219 -6.894531 L 39.074219 0 Z M 45.507812 0 "/></g></g></g><g fill="#f2faff" fill-opacity="1"><g transform="translate(2150.287286, 730.161368)"><g><path d="M 34.84375 -6.894531 L 34.84375 0 L 41.277344 0 L 41.277344 -40.453125 L 34.84375 -40.453125 L 34.84375 -23.535156 C 34.84375 -17.835938 33.738281 -13.515625 31.625 -10.296875 C 29.601562 -7.171875 26.019531 -5.609375 21.054688 -5.609375 C 18.296875 -5.609375 16.273438 -6.527344 15.078125 -8.367188 C 13.882812 -10.203125 13.332031 -12.503906 13.332031 -15.167969 L 13.332031 -40.453125 L 6.894531 -40.453125 L 6.894531 -15.167969 C 6.894531 -10.480469 8.089844 -6.621094 10.664062 -3.585938 C 13.238281 -0.644531 16.730469 0.828125 21.328125 0.828125 C 27.304688 0.828125 31.808594 -1.746094 34.84375 -6.894531 Z M 37.234375 -62.609375 L 29.328125 -62.609375 L 21.972656 -49.460938 L 27.121094 -49.460938 Z M 37.234375 -62.609375 "/></g></g></g><g fill="#f2faff" fill-opacity="1"><g transform="translate(2198.917601, 730.161368)"><g><path d="M 39.074219 -20.226562 C 39.074219 -16.273438 37.695312 -12.777344 34.933594 -9.929688 C 32.175781 -6.988281 28.777344 -5.515625 24.824219 -5.515625 C 20.777344 -5.515625 17.375 -6.988281 14.617188 -9.929688 C 11.859375 -12.777344 10.574219 -16.273438 10.574219 -20.226562 C 10.574219 -24.085938 11.859375 -27.582031 14.617188 -30.523438 C 17.375 -33.464844 20.777344 -34.933594 24.824219 -34.933594 C 28.777344 -34.933594 32.175781 -33.464844 34.933594 -30.523438 C 37.695312 -27.582031 39.074219 -24.085938 39.074219 -20.226562 Z M 45.507812 0 L 45.507812 -68.953125 L 39.074219 -68.953125 L 39.074219 -33.464844 C 38.703125 -34.015625 38.246094 -34.476562 37.878906 -34.933594 C 34.015625 -39.164062 29.328125 -41.371094 23.8125 -41.371094 C 18.203125 -41.371094 13.515625 -39.164062 9.652344 -34.933594 C 5.976562 -30.707031 4.136719 -25.832031 4.136719 -20.226562 C 4.136719 -14.527344 5.976562 -9.652344 9.652344 -5.515625 C 13.515625 -1.195312 18.203125 0.917969 23.8125 0.917969 C 29.328125 0.917969 34.015625 -1.195312 37.878906 -5.515625 C 38.246094 -5.882812 38.703125 -6.34375 39.074219 -6.894531 L 39.074219 0 Z M 45.507812 0 "/></g></g></g><g fill="#f2faff" fill-opacity="1"><g transform="translate(2253.155613, 730.161368)"><g><path d="M 46.425781 -21.144531 C 46.425781 -26.660156 44.222656 -31.441406 39.992188 -35.578125 C 35.855469 -39.53125 30.890625 -41.554688 25.28125 -41.554688 C 19.398438 -41.554688 14.433594 -39.441406 10.296875 -35.304688 C 6.160156 -31.164062 4.136719 -26.203125 4.136719 -20.410156 C 4.136719 -14.527344 6.160156 -9.5625 10.296875 -5.515625 C 12.226562 -3.585938 14.433594 -2.113281 17.007812 -1.011719 C 19.582031 0.09375 22.617188 0.644531 26.203125 0.644531 C 29.785156 0.644531 33.28125 -0.460938 36.773438 -2.667969 C 40.269531 -4.871094 42.839844 -8 44.589844 -11.859375 L 37.234375 -11.859375 C 35.761719 -9.929688 34.015625 -8.457031 31.902344 -7.355469 C 29.785156 -6.25 27.582031 -5.792969 25.28125 -5.792969 C 21.789062 -5.792969 18.664062 -6.894531 15.90625 -9.195312 C 13.148438 -11.398438 11.398438 -14.25 10.847656 -17.742188 L 46.425781 -17.742188 Z M 39.625 -23.257812 L 10.941406 -23.257812 C 11.308594 -24.914062 11.953125 -26.476562 12.871094 -27.949219 C 15.8125 -32.730469 19.949219 -35.121094 25.28125 -35.121094 C 28.683594 -35.121094 31.71875 -34.015625 34.382812 -31.808594 C 37.140625 -29.511719 38.796875 -26.660156 39.625 -23.257812 Z M 39.625 -23.257812 "/></g></g></g><g fill="#00bf63" fill-opacity="1"><g transform="translate(397.938808, 520.871545)"><g><path d="M 11.859375 -163.015625 L 70.140625 -163.015625 C 85.816406 -163.015625 98.59375 -158.832031 108.46875 -150.46875 C 118.351562 -142.101562 123.296875 -130.148438 123.296875 -114.609375 C 123.296875 -102.617188 120.296875 -92.570312 114.296875 -84.46875 C 108.304688 -76.363281 100.175781 -70.664062 89.90625 -67.375 L 146.015625 0 L 98.796875 0 L 49 -64.421875 L 49 0 L 11.859375 0 Z M 49 -90.703125 L 53.34375 -90.703125 C 56.769531 -90.703125 59.664062 -90.765625 62.03125 -90.890625 C 64.40625 -91.023438 67.109375 -91.488281 70.140625 -92.28125 C 73.171875 -93.070312 75.609375 -94.191406 77.453125 -95.640625 C 79.296875 -97.085938 80.875 -99.191406 82.1875 -101.953125 C 83.507812 -104.722656 84.171875 -108.082031 84.171875 -112.03125 C 84.171875 -115.988281 83.507812 -119.347656 82.1875 -122.109375 C 80.875 -124.878906 79.296875 -126.988281 77.453125 -128.4375 C 75.609375 -129.882812 73.171875 -131.003906 70.140625 -131.796875 C 67.109375 -132.585938 64.40625 -133.046875 62.03125 -133.171875 C 59.664062 -133.304688 56.769531 -133.375 53.34375 -133.375 L 49 -133.375 Z M 49 -90.703125 "/></g></g></g><g fill="#00bf63" fill-opacity="1"><g transform="translate(539.409844, 520.871545)"><g><path d="M 114.40625 -45.84375 L 40.90625 -45.84375 C 40.90625 -38.726562 43.207031 -33.457031 47.8125 -30.03125 C 52.425781 -26.601562 57.429688 -24.890625 62.828125 -24.890625 C 68.492188 -24.890625 72.972656 -25.644531 76.265625 -27.15625 C 79.566406 -28.675781 83.320312 -31.675781 87.53125 -36.15625 L 112.828125 -23.515625 C 102.285156 -5.859375 84.765625 2.96875 60.265625 2.96875 C 44.984375 2.96875 31.875 -2.265625 20.9375 -12.734375 C 10.007812 -23.210938 4.546875 -35.828125 4.546875 -50.578125 C 4.546875 -65.335938 10.007812 -77.984375 20.9375 -88.515625 C 31.875 -99.054688 44.984375 -104.328125 60.265625 -104.328125 C 76.335938 -104.328125 89.410156 -99.679688 99.484375 -90.390625 C 109.566406 -81.109375 114.609375 -67.835938 114.609375 -50.578125 C 114.609375 -48.210938 114.539062 -46.632812 114.40625 -45.84375 Z M 41.890625 -65.203125 L 80.421875 -65.203125 C 79.628906 -70.472656 77.550781 -74.523438 74.1875 -77.359375 C 70.832031 -80.191406 66.519531 -81.609375 61.25 -81.609375 C 55.457031 -81.609375 50.847656 -80.09375 47.421875 -77.0625 C 43.992188 -74.03125 42.148438 -70.078125 41.890625 -65.203125 Z M 41.890625 -65.203125 "/></g></g></g><g fill="#00bf63" fill-opacity="1"><g transform="translate(658.553739, 520.871545)"><g><path d="M 15.21875 -157.875 C 19.300781 -161.957031 24.171875 -164 29.828125 -164 C 35.492188 -164 40.367188 -161.957031 44.453125 -157.875 C 48.535156 -153.789062 50.578125 -148.914062 50.578125 -143.25 C 50.578125 -137.59375 48.535156 -132.722656 44.453125 -128.640625 C 40.367188 -124.554688 35.492188 -122.515625 29.828125 -122.515625 C 24.171875 -122.515625 19.300781 -124.554688 15.21875 -128.640625 C 11.132812 -132.722656 9.09375 -137.59375 9.09375 -143.25 C 9.09375 -148.914062 11.132812 -153.789062 15.21875 -157.875 Z M 11.859375 -101.359375 L 11.859375 0 L 46.828125 0 L 46.828125 -101.359375 Z M 11.859375 -101.359375 "/></g></g></g><g fill="#00bf63" fill-opacity="1"><g transform="translate(718.224487, 520.871545)"><g><path d="M 11.859375 0 L 11.859375 -101.359375 L 46.828125 -101.359375 L 46.828125 -90.703125 L 47.21875 -90.703125 C 56.3125 -99.785156 65.992188 -104.328125 76.265625 -104.328125 C 83.648438 -104.328125 90.566406 -102.8125 97.015625 -99.78125 C 103.472656 -96.75 108.347656 -92.070312 111.640625 -85.75 C 121.910156 -98.132812 133.109375 -104.328125 145.234375 -104.328125 C 156.035156 -104.328125 165.320312 -101.296875 173.09375 -95.234375 C 180.863281 -89.179688 184.75 -79.695312 184.75 -66.78125 L 184.75 0 L 149.78125 0 L 149.78125 -57.296875 C 149.78125 -62.703125 148.296875 -67.210938 145.328125 -70.828125 C 142.367188 -74.453125 137.925781 -76.265625 132 -76.265625 C 126.851562 -76.265625 122.929688 -74.71875 120.234375 -71.625 C 117.535156 -68.53125 116.054688 -64.8125 115.796875 -60.46875 L 115.796875 0 L 80.8125 0 L 80.8125 -57.296875 C 80.8125 -62.703125 79.328125 -67.210938 76.359375 -70.828125 C 73.398438 -74.453125 68.957031 -76.265625 63.03125 -76.265625 C 57.632812 -76.265625 53.582031 -74.582031 50.875 -71.21875 C 48.175781 -67.863281 46.828125 -63.882812 46.828125 -59.28125 L 46.828125 0 Z M 11.859375 0 "/></g></g></g><g fill="#00bf63" fill-opacity="1"><g transform="translate(912.84596, 520.871545)"><g><path d="M 18.765625 -12.546875 C 9.285156 -22.890625 4.546875 -35.566406 4.546875 -50.578125 C 4.546875 -65.597656 9.285156 -78.3125 18.765625 -88.71875 C 28.253906 -99.125 40.3125 -104.328125 54.9375 -104.328125 C 68.363281 -104.328125 79.425781 -100.113281 88.125 -91.6875 L 88.125 -101.359375 L 123.09375 -101.359375 L 123.09375 0 L 88.515625 0 L 88.515625 -11.453125 L 88.125 -11.453125 C 79.425781 -1.835938 68.363281 2.96875 54.9375 2.96875 C 40.3125 2.96875 28.253906 -2.203125 18.765625 -12.546875 Z M 48.5 -67.78125 C 43.957031 -63.300781 41.6875 -57.566406 41.6875 -50.578125 C 41.6875 -43.597656 43.859375 -37.898438 48.203125 -33.484375 C 52.554688 -29.078125 58.289062 -26.875 65.40625 -26.875 C 72.25 -26.875 77.878906 -29.113281 82.296875 -33.59375 C 86.710938 -38.070312 88.921875 -43.734375 88.921875 -50.578125 C 88.921875 -57.566406 86.644531 -63.300781 82.09375 -67.78125 C 77.550781 -72.257812 71.988281 -74.5 65.40625 -74.5 C 58.6875 -74.5 53.050781 -72.257812 48.5 -67.78125 Z M 48.5 -67.78125 "/></g></g></g><g fill="#00bf63" fill-opacity="1"><g transform="translate(1047.796682, 520.871545)"><g><path d="M 7.3125 24.890625 L 35.96875 10.875 C 41.226562 19.5625 50.378906 23.90625 63.421875 23.90625 C 69.484375 23.90625 75.113281 21.960938 80.3125 18.078125 C 85.519531 14.191406 88.125 8.234375 88.125 0.203125 L 88.125 -7.3125 C 81.9375 -0.457031 70.875 2.96875 54.9375 2.96875 C 40.3125 2.96875 28.253906 -2.203125 18.765625 -12.546875 C 9.285156 -22.890625 4.546875 -35.566406 4.546875 -50.578125 C 4.546875 -65.597656 9.285156 -78.3125 18.765625 -88.71875 C 28.253906 -99.125 40.3125 -104.328125 54.9375 -104.328125 C 67.976562 -104.328125 78.84375 -100.3125 87.53125 -92.28125 L 88.125 -92.28125 L 88.125 -101.359375 L 123.09375 -101.359375 L 123.09375 2.765625 C 123.09375 19.234375 117.625 31.945312 106.6875 40.90625 C 95.757812 49.863281 81.335938 54.34375 63.421875 54.34375 C 34.441406 54.34375 15.738281 44.523438 7.3125 24.890625 Z M 48.5 -67.78125 C 43.957031 -63.300781 41.6875 -57.566406 41.6875 -50.578125 C 41.6875 -43.597656 43.859375 -37.898438 48.203125 -33.484375 C 52.554688 -29.078125 58.289062 -26.875 65.40625 -26.875 C 72.25 -26.875 77.878906 -29.113281 82.296875 -33.59375 C 86.710938 -38.070312 88.921875 -43.734375 88.921875 -50.578125 C 88.921875 -57.566406 86.644531 -63.300781 82.09375 -67.78125 C 77.550781 -72.257812 71.988281 -74.5 65.40625 -74.5 C 58.6875 -74.5 53.050781 -72.257812 48.5 -67.78125 Z M 48.5 -67.78125 "/></g></g></g><g fill="#00bf63" fill-opacity="1"><g transform="translate(1182.747404, 520.871545)"><g><path d="M 15.21875 -157.875 C 19.300781 -161.957031 24.171875 -164 29.828125 -164 C 35.492188 -164 40.367188 -161.957031 44.453125 -157.875 C 48.535156 -153.789062 50.578125 -148.914062 50.578125 -143.25 C 50.578125 -137.59375 48.535156 -132.722656 44.453125 -128.640625 C 40.367188 -124.554688 35.492188 -122.515625 29.828125 -122.515625 C 24.171875 -122.515625 19.300781 -124.554688 15.21875 -128.640625 C 11.132812 -132.722656 9.09375 -137.59375 9.09375 -143.25 C 9.09375 -148.914062 11.132812 -153.789062 15.21875 -157.875 Z M 11.859375 -101.359375 L 11.859375 0 L 46.828125 0 L 46.828125 -101.359375 Z M 11.859375 -101.359375 "/></g></g></g><g fill="#00bf63" fill-opacity="1"><g transform="translate(1242.418152, 520.871545)"><g><path d="M 11.859375 0 L 11.859375 -101.359375 L 46.828125 -101.359375 L 46.828125 -90.703125 L 47.21875 -90.703125 C 56.3125 -99.785156 65.992188 -104.328125 76.265625 -104.328125 C 81.273438 -104.328125 86.25 -103.664062 91.1875 -102.34375 C 96.125 -101.03125 100.863281 -98.988281 105.40625 -96.21875 C 109.957031 -93.457031 113.648438 -89.539062 116.484375 -84.46875 C 119.316406 -79.394531 120.734375 -73.5 120.734375 -66.78125 L 120.734375 0 L 85.75 0 L 85.75 -57.296875 C 85.75 -62.566406 84.066406 -67.175781 80.703125 -71.125 C 77.347656 -75.082031 72.972656 -77.0625 67.578125 -77.0625 C 62.304688 -77.0625 57.53125 -75.019531 53.25 -70.9375 C 48.96875 -66.851562 46.828125 -62.304688 46.828125 -57.296875 L 46.828125 0 Z M 11.859375 0 "/></g></g></g><g fill="#00bf63" fill-opacity="1"><g transform="translate(1373.022026, 520.871545)"><g><path d="M 18.765625 -12.546875 C 9.285156 -22.890625 4.546875 -35.566406 4.546875 -50.578125 C 4.546875 -65.597656 9.285156 -78.3125 18.765625 -88.71875 C 28.253906 -99.125 40.3125 -104.328125 54.9375 -104.328125 C 68.363281 -104.328125 79.425781 -100.113281 88.125 -91.6875 L 88.125 -101.359375 L 123.09375 -101.359375 L 123.09375 0 L 88.515625 0 L 88.515625 -11.453125 L 88.125 -11.453125 C 79.425781 -1.835938 68.363281 2.96875 54.9375 2.96875 C 40.3125 2.96875 28.253906 -2.203125 18.765625 -12.546875 Z M 48.5 -67.78125 C 43.957031 -63.300781 41.6875 -57.566406 41.6875 -50.578125 C 41.6875 -43.597656 43.859375 -37.898438 48.203125 -33.484375 C 52.554688 -29.078125 58.289062 -26.875 65.40625 -26.875 C 72.25 -26.875 77.878906 -29.113281 82.296875 -33.59375 C 86.710938 -38.070312 88.921875 -43.734375 88.921875 -50.578125 C 88.921875 -57.566406 86.644531 -63.300781 82.09375 -67.78125 C 77.550781 -72.257812 71.988281 -74.5 65.40625 -74.5 C 58.6875 -74.5 53.050781 -72.257812 48.5 -67.78125 Z M 48.5 -67.78125 "/></g></g></g><g fill="#00bf63" fill-opacity="1"><g transform="translate(1507.972806, 520.871545)"><g><path d="M 11.859375 0 L 11.859375 -101.359375 L 46.828125 -101.359375 L 46.828125 -90.703125 L 47.21875 -90.703125 C 56.3125 -99.785156 65.992188 -104.328125 76.265625 -104.328125 C 81.273438 -104.328125 86.25 -103.664062 91.1875 -102.34375 C 96.125 -101.03125 100.863281 -98.988281 105.40625 -96.21875 C 109.957031 -93.457031 113.648438 -89.539062 116.484375 -84.46875 C 119.316406 -79.394531 120.734375 -73.5 120.734375 -66.78125 L 120.734375 0 L 85.75 0 L 85.75 -57.296875 C 85.75 -62.566406 84.066406 -67.175781 80.703125 -71.125 C 77.347656 -75.082031 72.972656 -77.0625 67.578125 -77.0625 C 62.304688 -77.0625 57.53125 -75.019531 53.25 -70.9375 C 48.96875 -66.851562 46.828125 -62.304688 46.828125 -57.296875 L 46.828125 0 Z M 11.859375 0 "/></g></g></g><g fill="#00bf63" fill-opacity="1"><g transform="translate(1638.57668, 520.871545)"><g><path d="M 18.765625 -12.546875 C 9.285156 -22.890625 4.546875 -35.566406 4.546875 -50.578125 C 4.546875 -65.597656 9.285156 -78.3125 18.765625 -88.71875 C 28.253906 -99.125 40.3125 -104.328125 54.9375 -104.328125 C 68.363281 -104.328125 79.425781 -100.113281 88.125 -91.6875 L 88.125 -169.9375 L 123.09375 -169.9375 L 123.09375 0 L 88.515625 0 L 88.515625 -11.453125 L 88.125 -11.453125 C 79.425781 -1.835938 68.363281 2.96875 54.9375 2.96875 C 40.3125 2.96875 28.253906 -2.203125 18.765625 -12.546875 Z M 48.5 -67.78125 C 43.957031 -63.300781 41.6875 -57.566406 41.6875 -50.578125 C 41.6875 -43.597656 43.859375 -37.898438 48.203125 -33.484375 C 52.554688 -29.078125 58.289062 -26.875 65.40625 -26.875 C 72.25 -26.875 77.878906 -29.113281 82.296875 -33.59375 C 86.710938 -38.070312 88.921875 -43.734375 88.921875 -50.578125 C 88.921875 -57.566406 86.644531 -63.300781 82.09375 -67.78125 C 77.550781 -72.257812 71.988281 -74.5 65.40625 -74.5 C 58.6875 -74.5 53.050781 -72.257812 48.5 -67.78125 Z M 48.5 -67.78125 "/></g></g></g><g fill="#00bf63" fill-opacity="1"><g transform="translate(1773.527345, 520.871545)"><g><path d="M 21.4375 -12.046875 C 10.175781 -22.066406 4.546875 -34.910156 4.546875 -50.578125 C 4.546875 -66.253906 10.40625 -79.128906 22.125 -89.203125 C 33.851562 -99.285156 48.34375 -104.328125 65.59375 -104.328125 C 82.59375 -104.328125 96.921875 -99.253906 108.578125 -89.109375 C 120.234375 -78.972656 126.0625 -66.128906 126.0625 -50.578125 C 126.0625 -35.035156 120.363281 -22.222656 108.96875 -12.140625 C 97.570312 -2.066406 83.113281 2.96875 65.59375 2.96875 C 47.414062 2.96875 32.695312 -2.035156 21.4375 -12.046875 Z M 48.5 -67.78125 C 43.957031 -63.300781 41.6875 -57.566406 41.6875 -50.578125 C 41.6875 -43.597656 43.859375 -37.898438 48.203125 -33.484375 C 52.554688 -29.078125 58.289062 -26.875 65.40625 -26.875 C 72.25 -26.875 77.878906 -29.113281 82.296875 -33.59375 C 86.710938 -38.070312 88.921875 -43.734375 88.921875 -50.578125 C 88.921875 -57.566406 86.644531 -63.300781 82.09375 -67.78125 C 77.550781 -72.257812 71.988281 -74.5 65.40625 -74.5 C 58.6875 -74.5 53.050781 -72.257812 48.5 -67.78125 Z M 48.5 -67.78125 "/></g></g></g><g fill="#00bf63" fill-opacity="1"><g transform="translate(1904.131219, 520.871545)"><g/></g></g><g fill="#00bf63" fill-opacity="1"><g transform="translate(1958.071956, 520.871545)"><g><path d="M 18.765625 -12.546875 C 9.285156 -22.890625 4.546875 -35.566406 4.546875 -50.578125 C 4.546875 -65.597656 9.285156 -78.3125 18.765625 -88.71875 C 28.253906 -99.125 40.3125 -104.328125 54.9375 -104.328125 C 68.363281 -104.328125 79.425781 -100.113281 88.125 -91.6875 L 88.125 -101.359375 L 123.09375 -101.359375 L 123.09375 0 L 88.515625 0 L 88.515625 -11.453125 L 88.125 -11.453125 C 79.425781 -1.835938 68.363281 2.96875 54.9375 2.96875 C 40.3125 2.96875 28.253906 -2.203125 18.765625 -12.546875 Z M 48.5 -67.78125 C 43.957031 -63.300781 41.6875 -57.566406 41.6875 -50.578125 C 41.6875 -43.597656 43.859375 -37.898438 48.203125 -33.484375 C 52.554688 -29.078125 58.289062 -26.875 65.40625 -26.875 C 72.25 -26.875 77.878906 -29.113281 82.296875 -33.59375 C 86.710938 -38.070312 88.921875 -43.734375 88.921875 -50.578125 C 88.921875 -57.566406 86.644531 -63.300781 82.09375 -67.78125 C 77.550781 -72.257812 71.988281 -74.5 65.40625 -74.5 C 58.6875 -74.5 53.050781 -72.257812 48.5 -67.78125 Z M 48.5 -67.78125 "/></g></g></g><g fill="#00bf63" fill-opacity="1"><g transform="translate(2093.02262, 520.871545)"><g/></g></g><g fill="#00bf63" fill-opacity="1"><g transform="translate(2146.963358, 520.871545)"><g><path d="M 94.640625 -163.015625 L 160.453125 0 L 120.53125 0 L 108.484375 -32.609375 L 46.4375 -32.609375 L 34.375 0 L -5.53125 0 L 60.265625 -163.015625 Z M 95.828125 -65.203125 L 77.65625 -112.625 L 77.265625 -112.625 L 59.078125 -65.203125 Z M 95.828125 -65.203125 "/></g></g></g><g fill="#00bf63" fill-opacity="1"><g transform="translate(2301.87021, 520.871545)"><g><path d="M 55.921875 -104.328125 C 61.710938 -104.328125 67.441406 -103.664062 73.109375 -102.34375 C 78.773438 -101.03125 82.988281 -99.71875 85.75 -98.40625 L 89.90625 -96.421875 L 78.4375 -73.5 C 70.539062 -77.71875 63.035156 -79.828125 55.921875 -79.828125 C 51.960938 -79.828125 49.160156 -79.398438 47.515625 -78.546875 C 45.867188 -77.691406 45.046875 -76.078125 45.046875 -73.703125 C 45.046875 -73.171875 45.113281 -72.640625 45.25 -72.109375 C 45.382812 -71.585938 45.644531 -71.097656 46.03125 -70.640625 C 46.425781 -70.179688 46.789062 -69.785156 47.125 -69.453125 C 47.457031 -69.117188 48.015625 -68.753906 48.796875 -68.359375 C 49.585938 -67.972656 50.210938 -67.679688 50.671875 -67.484375 C 51.140625 -67.285156 51.898438 -66.988281 52.953125 -66.59375 C 54.003906 -66.195312 54.789062 -65.898438 55.3125 -65.703125 C 55.84375 -65.503906 56.734375 -65.207031 57.984375 -64.8125 C 59.242188 -64.414062 60.203125 -64.148438 60.859375 -64.015625 C 64.941406 -62.828125 68.5 -61.507812 71.53125 -60.0625 C 74.5625 -58.613281 77.753906 -56.640625 81.109375 -54.140625 C 84.472656 -51.640625 87.078125 -48.476562 88.921875 -44.65625 C 90.765625 -40.832031 91.6875 -36.484375 91.6875 -31.609375 C 91.6875 -8.554688 75.679688 2.96875 43.671875 2.96875 C 36.421875 2.96875 29.535156 1.847656 23.015625 -0.390625 C 16.492188 -2.628906 11.785156 -4.867188 8.890625 -7.109375 L 4.546875 -10.671875 L 18.765625 -34.578125 C 19.828125 -33.660156 21.210938 -32.570312 22.921875 -31.3125 C 24.628906 -30.0625 27.722656 -28.347656 32.203125 -26.171875 C 36.679688 -24.003906 40.566406 -22.921875 43.859375 -22.921875 C 51.109375 -22.921875 54.734375 -25.359375 54.734375 -30.234375 C 54.734375 -32.472656 53.8125 -34.21875 51.96875 -35.46875 C 50.125 -36.71875 46.992188 -38.132812 42.578125 -39.71875 C 38.171875 -41.300781 34.710938 -42.75 32.203125 -44.0625 C 25.878906 -47.351562 20.875 -51.070312 17.1875 -55.21875 C 13.5 -59.375 11.65625 -64.875 11.65625 -71.71875 C 11.65625 -82 15.640625 -90.003906 23.609375 -95.734375 C 31.578125 -101.460938 42.347656 -104.328125 55.921875 -104.328125 Z M 55.921875 -104.328125 "/></g></g></g><g fill="#00bf63" fill-opacity="1"><g transform="translate(2399.082238, 520.871545)"><g><path d="M 55.921875 -104.328125 C 61.710938 -104.328125 67.441406 -103.664062 73.109375 -102.34375 C 78.773438 -101.03125 82.988281 -99.71875 85.75 -98.40625 L 89.90625 -96.421875 L 78.4375 -73.5 C 70.539062 -77.71875 63.035156 -79.828125 55.921875 -79.828125 C 51.960938 -79.828125 49.160156 -79.398438 47.515625 -78.546875 C 45.867188 -77.691406 45.046875 -76.078125 45.046875 -73.703125 C 45.046875 -73.171875 45.113281 -72.640625 45.25 -72.109375 C 45.382812 -71.585938 45.644531 -71.097656 46.03125 -70.640625 C 46.425781 -70.179688 46.789062 -69.785156 47.125 -69.453125 C 47.457031 -69.117188 48.015625 -68.753906 48.796875 -68.359375 C 49.585938 -67.972656 50.210938 -67.679688 50.671875 -67.484375 C 51.140625 -67.285156 51.898438 -66.988281 52.953125 -66.59375 C 54.003906 -66.195312 54.789062 -65.898438 55.3125 -65.703125 C 55.84375 -65.503906 56.734375 -65.207031 57.984375 -64.8125 C 59.242188 -64.414062 60.203125 -64.148438 60.859375 -64.015625 C 64.941406 -62.828125 68.5 -61.507812 71.53125 -60.0625 C 74.5625 -58.613281 77.753906 -56.640625 81.109375 -54.140625 C 84.472656 -51.640625 87.078125 -48.476562 88.921875 -44.65625 C 90.765625 -40.832031 91.6875 -36.484375 91.6875 -31.609375 C 91.6875 -8.554688 75.679688 2.96875 43.671875 2.96875 C 36.421875 2.96875 29.535156 1.847656 23.015625 -0.390625 C 16.492188 -2.628906 11.785156 -4.867188 8.890625 -7.109375 L 4.546875 -10.671875 L 18.765625 -34.578125 C 19.828125 -33.660156 21.210938 -32.570312 22.921875 -31.3125 C 24.628906 -30.0625 27.722656 -28.347656 32.203125 -26.171875 C 36.679688 -24.003906 40.566406 -22.921875 43.859375 -22.921875 C 51.109375 -22.921875 54.734375 -25.359375 54.734375 -30.234375 C 54.734375 -32.472656 53.8125 -34.21875 51.96875 -35.46875 C 50.125 -36.71875 46.992188 -38.132812 42.578125 -39.71875 C 38.171875 -41.300781 34.710938 -42.75 32.203125 -44.0625 C 25.878906 -47.351562 20.875 -51.070312 17.1875 -55.21875 C 13.5 -59.375 11.65625 -64.875 11.65625 -71.71875 C 11.65625 -82 15.640625 -90.003906 23.609375 -95.734375 C 31.578125 -101.460938 42.347656 -104.328125 55.921875 -104.328125 Z M 55.921875 -104.328125 "/></g></g></g><g fill="#00bf63" fill-opacity="1"><g transform="translate(2496.294151, 520.871545)"><g><path d="M 15.21875 -157.875 C 19.300781 -161.957031 24.171875 -164 29.828125 -164 C 35.492188 -164 40.367188 -161.957031 44.453125 -157.875 C 48.535156 -153.789062 50.578125 -148.914062 50.578125 -143.25 C 50.578125 -137.59375 48.535156 -132.722656 44.453125 -128.640625 C 40.367188 -124.554688 35.492188 -122.515625 29.828125 -122.515625 C 24.171875 -122.515625 19.300781 -124.554688 15.21875 -128.640625 C 11.132812 -132.722656 9.09375 -137.59375 9.09375 -143.25 C 9.09375 -148.914062 11.132812 -153.789062 15.21875 -157.875 Z M 11.859375 -101.359375 L 11.859375 0 L 46.828125 0 L 46.828125 -101.359375 Z M 11.859375 -101.359375 "/></g></g></g><g fill="#00bf63" fill-opacity="1"><g transform="translate(2555.964957, 520.871545)"><g><path d="M 55.921875 -104.328125 C 61.710938 -104.328125 67.441406 -103.664062 73.109375 -102.34375 C 78.773438 -101.03125 82.988281 -99.71875 85.75 -98.40625 L 89.90625 -96.421875 L 78.4375 -73.5 C 70.539062 -77.71875 63.035156 -79.828125 55.921875 -79.828125 C 51.960938 -79.828125 49.160156 -79.398438 47.515625 -78.546875 C 45.867188 -77.691406 45.046875 -76.078125 45.046875 -73.703125 C 45.046875 -73.171875 45.113281 -72.640625 45.25 -72.109375 C 45.382812 -71.585938 45.644531 -71.097656 46.03125 -70.640625 C 46.425781 -70.179688 46.789062 -69.785156 47.125 -69.453125 C 47.457031 -69.117188 48.015625 -68.753906 48.796875 -68.359375 C 49.585938 -67.972656 50.210938 -67.679688 50.671875 -67.484375 C 51.140625 -67.285156 51.898438 -66.988281 52.953125 -66.59375 C 54.003906 -66.195312 54.789062 -65.898438 55.3125 -65.703125 C 55.84375 -65.503906 56.734375 -65.207031 57.984375 -64.8125 C 59.242188 -64.414062 60.203125 -64.148438 60.859375 -64.015625 C 64.941406 -62.828125 68.5 -61.507812 71.53125 -60.0625 C 74.5625 -58.613281 77.753906 -56.640625 81.109375 -54.140625 C 84.472656 -51.640625 87.078125 -48.476562 88.921875 -44.65625 C 90.765625 -40.832031 91.6875 -36.484375 91.6875 -31.609375 C 91.6875 -8.554688 75.679688 2.96875 43.671875 2.96875 C 36.421875 2.96875 29.535156 1.847656 23.015625 -0.390625 C 16.492188 -2.628906 11.785156 -4.867188 8.890625 -7.109375 L 4.546875 -10.671875 L 18.765625 -34.578125 C 19.828125 -33.660156 21.210938 -32.570312 22.921875 -31.3125 C 24.628906 -30.0625 27.722656 -28.347656 32.203125 -26.171875 C 36.679688 -24.003906 40.566406 -22.921875 43.859375 -22.921875 C 51.109375 -22.921875 54.734375 -25.359375 54.734375 -30.234375 C 54.734375 -32.472656 53.8125 -34.21875 51.96875 -35.46875 C 50.125 -36.71875 46.992188 -38.132812 42.578125 -39.71875 C 38.171875 -41.300781 34.710938 -42.75 32.203125 -44.0625 C 25.878906 -47.351562 20.875 -51.070312 17.1875 -55.21875 C 13.5 -59.375 11.65625 -64.875 11.65625 -71.71875 C 11.65625 -82 15.640625 -90.003906 23.609375 -95.734375 C 31.578125 -101.460938 42.347656 -104.328125 55.921875 -104.328125 Z M 55.921875 -104.328125 "/></g></g></g><g fill="#00bf63" fill-opacity="1"><g transform="translate(2653.17687, 520.871545)"><g><path d="M 17.78125 -101.359375 L 17.78125 -139.109375 L 52.75 -139.109375 L 52.75 -101.359375 L 74.09375 -101.359375 L 74.09375 -74.6875 L 52.75 -74.6875 L 52.75 -42.484375 C 52.75 -33.128906 55.382812 -28.453125 60.65625 -28.453125 C 61.976562 -28.453125 63.363281 -28.710938 64.8125 -29.234375 C 66.257812 -29.765625 67.378906 -30.296875 68.171875 -30.828125 L 69.359375 -31.609375 L 78.046875 -3.359375 C 70.535156 0.859375 61.972656 2.96875 52.359375 2.96875 C 45.773438 2.96875 40.109375 1.816406 35.359375 -0.484375 C 30.617188 -2.796875 27.03125 -5.894531 24.59375 -9.78125 C 22.15625 -13.664062 20.410156 -17.75 19.359375 -22.03125 C 18.304688 -26.3125 17.78125 -30.890625 17.78125 -35.765625 L 17.78125 -74.6875 L 3.15625 -74.6875 L 3.15625 -101.359375 Z M 17.78125 -101.359375 "/></g></g></g><g fill="#00bf63" fill-opacity="1"><g transform="translate(2731.223056, 520.871545)"><g><path d="M 15.8125 -133.96875 L 59.46875 -165.984375 L 103.140625 -133.96875 L 89.703125 -115.984375 L 59.46875 -138.125 L 29.25 -115.984375 Z M 114.40625 -45.84375 L 40.90625 -45.84375 C 40.90625 -38.726562 43.207031 -33.457031 47.8125 -30.03125 C 52.425781 -26.601562 57.429688 -24.890625 62.828125 -24.890625 C 68.492188 -24.890625 72.972656 -25.644531 76.265625 -27.15625 C 79.566406 -28.675781 83.320312 -31.675781 87.53125 -36.15625 L 112.828125 -23.515625 C 102.285156 -5.859375 84.765625 2.96875 60.265625 2.96875 C 44.984375 2.96875 31.875 -2.265625 20.9375 -12.734375 C 10.007812 -23.210938 4.546875 -35.828125 4.546875 -50.578125 C 4.546875 -65.335938 10.007812 -77.984375 20.9375 -88.515625 C 31.875 -99.054688 44.984375 -104.328125 60.265625 -104.328125 C 76.335938 -104.328125 89.410156 -99.679688 99.484375 -90.390625 C 109.566406 -81.109375 114.609375 -67.835938 114.609375 -50.578125 C 114.609375 -48.210938 114.539062 -46.632812 114.40625 -45.84375 Z M 41.890625 -65.203125 L 80.421875 -65.203125 C 79.628906 -70.472656 77.550781 -74.523438 74.1875 -77.359375 C 70.832031 -80.191406 66.519531 -81.609375 61.25 -81.609375 C 55.457031 -81.609375 50.847656 -80.09375 47.421875 -77.0625 C 43.992188 -74.03125 42.148438 -70.078125 41.890625 -65.203125 Z M 41.890625 -65.203125 "/></g></g></g><g fill="#00bf63" fill-opacity="1"><g transform="translate(2850.367022, 520.871545)"><g><path d="M 11.859375 0 L 11.859375 -101.359375 L 46.828125 -101.359375 L 46.828125 -90.703125 L 47.21875 -90.703125 C 56.3125 -99.785156 65.992188 -104.328125 76.265625 -104.328125 C 81.273438 -104.328125 86.25 -103.664062 91.1875 -102.34375 C 96.125 -101.03125 100.863281 -98.988281 105.40625 -96.21875 C 109.957031 -93.457031 113.648438 -89.539062 116.484375 -84.46875 C 119.316406 -79.394531 120.734375 -73.5 120.734375 -66.78125 L 120.734375 0 L 85.75 0 L 85.75 -57.296875 C 85.75 -62.566406 84.066406 -67.175781 80.703125 -71.125 C 77.347656 -75.082031 72.972656 -77.0625 67.578125 -77.0625 C 62.304688 -77.0625 57.53125 -75.019531 53.25 -70.9375 C 48.96875 -66.851562 46.828125 -62.304688 46.828125 -57.296875 L 46.828125 0 Z M 11.859375 0 "/></g></g></g><g fill="#00bf63" fill-opacity="1"><g transform="translate(2980.970896, 520.871545)"><g><path d="M 65.796875 -75.671875 C 59.210938 -75.671875 53.546875 -73.234375 48.796875 -68.359375 C 44.054688 -63.492188 41.6875 -57.632812 41.6875 -50.78125 C 41.6875 -43.800781 44.054688 -37.875 48.796875 -33 C 53.546875 -28.125 59.210938 -25.6875 65.796875 -25.6875 C 68.960938 -25.6875 71.957031 -26.082031 74.78125 -26.875 C 77.613281 -27.664062 79.691406 -28.457031 81.015625 -29.25 L 82.796875 -30.421875 L 94.640625 -6.125 C 93.722656 -5.46875 92.441406 -4.644531 90.796875 -3.65625 C 89.148438 -2.664062 85.394531 -1.316406 79.53125 0.390625 C 73.664062 2.109375 67.375 2.96875 60.65625 2.96875 C 45.769531 2.96875 32.695312 -2.265625 21.4375 -12.734375 C 10.175781 -23.210938 4.546875 -35.765625 4.546875 -50.390625 C 4.546875 -65.140625 10.175781 -77.816406 21.4375 -88.421875 C 32.695312 -99.023438 45.769531 -104.328125 60.65625 -104.328125 C 67.375 -104.328125 73.566406 -103.535156 79.234375 -101.953125 C 84.898438 -100.378906 88.914062 -98.800781 91.28125 -97.21875 L 94.640625 -94.84375 L 82.796875 -70.9375 C 78.441406 -74.09375 72.773438 -75.671875 65.796875 -75.671875 Z M 65.796875 -75.671875 "/></g></g></g><g fill="#00bf63" fill-opacity="1"><g transform="translate(3077.985164, 520.871545)"><g><path d="M 15.21875 -157.875 C 19.300781 -161.957031 24.171875 -164 29.828125 -164 C 35.492188 -164 40.367188 -161.957031 44.453125 -157.875 C 48.535156 -153.789062 50.578125 -148.914062 50.578125 -143.25 C 50.578125 -137.59375 48.535156 -132.722656 44.453125 -128.640625 C 40.367188 -124.554688 35.492188 -122.515625 29.828125 -122.515625 C 24.171875 -122.515625 19.300781 -124.554688 15.21875 -128.640625 C 11.132812 -132.722656 9.09375 -137.59375 9.09375 -143.25 C 9.09375 -148.914062 11.132812 -153.789062 15.21875 -157.875 Z M 11.859375 -101.359375 L 11.859375 0 L 46.828125 0 L 46.828125 -101.359375 Z M 11.859375 -101.359375 "/></g></g></g><g fill="#00bf63" fill-opacity="1"><g transform="translate(3137.65597, 520.871545)"><g><path d="M 18.765625 -12.546875 C 9.285156 -22.890625 4.546875 -35.566406 4.546875 -50.578125 C 4.546875 -65.597656 9.285156 -78.3125 18.765625 -88.71875 C 28.253906 -99.125 40.3125 -104.328125 54.9375 -104.328125 C 68.363281 -104.328125 79.425781 -100.113281 88.125 -91.6875 L 88.125 -101.359375 L 123.09375 -101.359375 L 123.09375 0 L 88.515625 0 L 88.515625 -11.453125 L 88.125 -11.453125 C 79.425781 -1.835938 68.363281 2.96875 54.9375 2.96875 C 40.3125 2.96875 28.253906 -2.203125 18.765625 -12.546875 Z M 48.5 -67.78125 C 43.957031 -63.300781 41.6875 -57.566406 41.6875 -50.578125 C 41.6875 -43.597656 43.859375 -37.898438 48.203125 -33.484375 C 52.554688 -29.078125 58.289062 -26.875 65.40625 -26.875 C 72.25 -26.875 77.878906 -29.113281 82.296875 -33.59375 C 86.710938 -38.070312 88.921875 -43.734375 88.921875 -50.578125 C 88.921875 -57.566406 86.644531 -63.300781 82.09375 -67.78125 C 77.550781 -72.257812 71.988281 -74.5 65.40625 -74.5 C 58.6875 -74.5 53.050781 -72.257812 48.5 -67.78125 Z M 48.5 -67.78125 "/></g></g></g><g fill="#00bf63" fill-opacity="1"><g transform="translate(3272.606634, 520.871545)"><g/></g></g><g fill="#00bf63" fill-opacity="1"><g transform="translate(3326.547371, 520.871545)"><g><path d="M 146.609375 0 L 138.90625 -96.625 L 137.921875 -96.625 L 104.53125 -0.984375 L 82.390625 -0.984375 L 49 -96.625 L 48.015625 -96.625 L 40.3125 0 L 3.15625 0 L 17.78125 -163.015625 L 57.296875 -163.015625 L 93.46875 -68.953125 L 129.625 -163.015625 L 169.140625 -163.015625 L 183.765625 0 Z M 146.609375 0 "/></g></g></g><g fill="#00bf63" fill-opacity="1"><g transform="translate(3513.463025, 520.871545)"><g><path d="M 48.015625 -131.203125 L 88.125 -165.984375 L 106.109375 -143.25 L 59.078125 -115.984375 Z M 114.40625 -45.84375 L 40.90625 -45.84375 C 40.90625 -38.726562 43.207031 -33.457031 47.8125 -30.03125 C 52.425781 -26.601562 57.429688 -24.890625 62.828125 -24.890625 C 68.492188 -24.890625 72.972656 -25.644531 76.265625 -27.15625 C 79.566406 -28.675781 83.320312 -31.675781 87.53125 -36.15625 L 112.828125 -23.515625 C 102.285156 -5.859375 84.765625 2.96875 60.265625 2.96875 C 44.984375 2.96875 31.875 -2.265625 20.9375 -12.734375 C 10.007812 -23.210938 4.546875 -35.828125 4.546875 -50.578125 C 4.546875 -65.335938 10.007812 -77.984375 20.9375 -88.515625 C 31.875 -99.054688 44.984375 -104.328125 60.265625 -104.328125 C 76.335938 -104.328125 89.410156 -99.679688 99.484375 -90.390625 C 109.566406 -81.109375 114.609375 -67.835938 114.609375 -50.578125 C 114.609375 -48.210938 114.539062 -46.632812 114.40625 -45.84375 Z M 41.890625 -65.203125 L 80.421875 -65.203125 C 79.628906 -70.472656 77.550781 -74.523438 74.1875 -77.359375 C 70.832031 -80.191406 66.519531 -81.609375 61.25 -81.609375 C 55.457031 -81.609375 50.847656 -80.09375 47.421875 -77.0625 C 43.992188 -74.03125 42.148438 -70.078125 41.890625 -65.203125 Z M 41.890625 -65.203125 "/></g></g></g><g fill="#00bf63" fill-opacity="1"><g transform="translate(3632.606991, 520.871545)"><g><path d="M 18.765625 -12.546875 C 9.285156 -22.890625 4.546875 -35.566406 4.546875 -50.578125 C 4.546875 -65.597656 9.285156 -78.3125 18.765625 -88.71875 C 28.253906 -99.125 40.3125 -104.328125 54.9375 -104.328125 C 68.363281 -104.328125 79.425781 -100.113281 88.125 -91.6875 L 88.125 -169.9375 L 123.09375 -169.9375 L 123.09375 0 L 88.515625 0 L 88.515625 -11.453125 L 88.125 -11.453125 C 79.425781 -1.835938 68.363281 2.96875 54.9375 2.96875 C 40.3125 2.96875 28.253906 -2.203125 18.765625 -12.546875 Z M 48.5 -67.78125 C 43.957031 -63.300781 41.6875 -57.566406 41.6875 -50.578125 C 41.6875 -43.597656 43.859375 -37.898438 48.203125 -33.484375 C 52.554688 -29.078125 58.289062 -26.875 65.40625 -26.875 C 72.25 -26.875 77.878906 -29.113281 82.296875 -33.59375 C 86.710938 -38.070312 88.921875 -43.734375 88.921875 -50.578125 C 88.921875 -57.566406 86.644531 -63.300781 82.09375 -67.78125 C 77.550781 -72.257812 71.988281 -74.5 65.40625 -74.5 C 58.6875 -74.5 53.050781 -72.257812 48.5 -67.78125 Z M 48.5 -67.78125 "/></g></g></g><g fill="#00bf63" fill-opacity="1"><g transform="translate(3767.557656, 520.871545)"><g><path d="M 15.21875 -157.875 C 19.300781 -161.957031 24.171875 -164 29.828125 -164 C 35.492188 -164 40.367188 -161.957031 44.453125 -157.875 C 48.535156 -153.789062 50.578125 -148.914062 50.578125 -143.25 C 50.578125 -137.59375 48.535156 -132.722656 44.453125 -128.640625 C 40.367188 -124.554688 35.492188 -122.515625 29.828125 -122.515625 C 24.171875 -122.515625 19.300781 -124.554688 15.21875 -128.640625 C 11.132812 -132.722656 9.09375 -137.59375 9.09375 -143.25 C 9.09375 -148.914062 11.132812 -153.789062 15.21875 -157.875 Z M 11.859375 -101.359375 L 11.859375 0 L 46.828125 0 L 46.828125 -101.359375 Z M 11.859375 -101.359375 "/></g></g></g><g fill="#00bf63" fill-opacity="1"><g transform="translate(3827.228461, 520.871545)"><g><path d="M 65.796875 -75.671875 C 59.210938 -75.671875 53.546875 -73.234375 48.796875 -68.359375 C 44.054688 -63.492188 41.6875 -57.632812 41.6875 -50.78125 C 41.6875 -43.800781 44.054688 -37.875 48.796875 -33 C 53.546875 -28.125 59.210938 -25.6875 65.796875 -25.6875 C 68.960938 -25.6875 71.957031 -26.082031 74.78125 -26.875 C 77.613281 -27.664062 79.691406 -28.457031 81.015625 -29.25 L 82.796875 -30.421875 L 94.640625 -6.125 C 93.722656 -5.46875 92.441406 -4.644531 90.796875 -3.65625 C 89.148438 -2.664062 85.394531 -1.316406 79.53125 0.390625 C 73.664062 2.109375 67.375 2.96875 60.65625 2.96875 C 45.769531 2.96875 32.695312 -2.265625 21.4375 -12.734375 C 10.175781 -23.210938 4.546875 -35.765625 4.546875 -50.390625 C 4.546875 -65.140625 10.175781 -77.816406 21.4375 -88.421875 C 32.695312 -99.023438 45.769531 -104.328125 60.65625 -104.328125 C 67.375 -104.328125 73.566406 -103.535156 79.234375 -101.953125 C 84.898438 -100.378906 88.914062 -98.800781 91.28125 -97.21875 L 94.640625 -94.84375 L 82.796875 -70.9375 C 78.441406 -74.09375 72.773438 -75.671875 65.796875 -75.671875 Z M 65.796875 -75.671875 "/></g></g></g><g fill="#00bf63" fill-opacity="1"><g transform="translate(3924.242729, 520.871545)"><g><path d="M 18.765625 -12.546875 C 9.285156 -22.890625 4.546875 -35.566406 4.546875 -50.578125 C 4.546875 -65.597656 9.285156 -78.3125 18.765625 -88.71875 C 28.253906 -99.125 40.3125 -104.328125 54.9375 -104.328125 C 68.363281 -104.328125 79.425781 -100.113281 88.125 -91.6875 L 88.125 -101.359375 L 123.09375 -101.359375 L 123.09375 0 L 88.515625 0 L 88.515625 -11.453125 L 88.125 -11.453125 C 79.425781 -1.835938 68.363281 2.96875 54.9375 2.96875 C 40.3125 2.96875 28.253906 -2.203125 18.765625 -12.546875 Z M 48.5 -67.78125 C 43.957031 -63.300781 41.6875 -57.566406 41.6875 -50.578125 C 41.6875 -43.597656 43.859375 -37.898438 48.203125 -33.484375 C 52.554688 -29.078125 58.289062 -26.875 65.40625 -26.875 C 72.25 -26.875 77.878906 -29.113281 82.296875 -33.59375 C 86.710938 -38.070312 88.921875 -43.734375 88.921875 -50.578125 C 88.921875 -57.566406 86.644531 -63.300781 82.09375 -67.78125 C 77.550781 -72.257812 71.988281 -74.5 65.40625 -74.5 C 58.6875 -74.5 53.050781 -72.257812 48.5 -67.78125 Z M 48.5 -67.78125 "/></g></g></g></svg>